<svg width="22" height="25" viewBox="0 0 22 25" fill="none" xmlns="http://www.w3.org/2000/svg">
<path d="M16.0278 0.333252L22 6.30547V23.0193C22.0011 23.1762 21.9713 23.3317 21.9123 23.4771C21.8533 23.6224 21.7662 23.7547 21.6561 23.8664C21.5459 23.9781 21.4149 24.067 21.2704 24.128C21.1259 24.1891 20.9708 24.221 20.8139 24.2221H1.68608C1.3724 24.2199 1.07216 24.0944 0.850232 23.8727C0.628305 23.651 0.502502 23.3509 0.5 23.0372V1.51814C0.5 0.863585 1.03392 0.333252 1.69325 0.333252H16.0278ZM14.8333 2.72214H2.88889V21.8332H19.6111V7.49992H14.8333V2.72214Z" fill="white"/>
<path d="M12.0464 13.8703V9.09253H9.65747V16.2592H15.6297V13.8703H12.0464Z" fill="white"/>
</svg>
