<svg width="24" height="30" viewBox="0 0 24 30" fill="none" xmlns="http://www.w3.org/2000/svg">
<path d="M18.7834 0.00683594L20.4454 3.13686L24.0001 3.5688L21.3917 5.91945L21.9134 9.3969L18.7834 7.44064L15.6533 9.3969L16.175 5.91945L13.5667 3.5688L17.2183 3.13686L18.7834 0.00683594Z" fill="white"/>
<path d="M18.4881 11.7433L16.4661 11.2238C16.1037 12.62 15.3356 13.8775 14.2588 14.8374C13.182 15.7972 11.8448 16.4164 10.4163 16.6167C8.98774 16.817 7.53189 16.5894 6.23264 15.9627C4.9334 15.3359 3.84906 14.3381 3.11662 13.0954C2.38418 11.8527 2.0365 10.4207 2.1175 8.9805C2.19851 7.54027 2.70456 6.15635 3.57174 5.00359C4.43891 3.85082 5.62829 2.98094 6.98962 2.50384C8.35095 2.02673 9.82315 1.96381 11.2202 2.32302L11.7409 0.302071C9.70423 -0.227683 7.54863 -0.0571708 5.62063 0.786193C3.69262 1.62956 2.10424 3.09677 1.11085 4.95194C0.117463 6.8071 -0.223209 8.94243 0.143609 11.0146C0.510427 13.0868 1.56342 14.9754 3.13329 16.3768V29.2203L9.39333 25.047L15.6534 29.2203V16.3956C17.0391 15.1606 18.0259 13.5411 18.4881 11.7433ZM13.5667 25.3214L9.39333 22.5388L5.21997 25.3214V17.7958C6.5148 18.4462 7.94357 18.7855 9.39259 18.7866C10.8416 18.7877 12.2709 18.4505 13.5667 17.802V25.3214Z" fill="white"/>
</svg>
