<svg width="37" height="32" viewBox="0 0 37 32" fill="none" xmlns="http://www.w3.org/2000/svg">
<path d="M0 1.76533C0.00338558 1.29845 0.197766 0.851586 0.541149 0.521276C0.884532 0.190965 1.34935 0.00372382 1.8352 0H35.1648C36.1786 0 37 0.791111 37 1.76533V30.2347C36.9966 30.7015 36.8022 31.1484 36.4589 31.4787C36.1155 31.809 35.6506 31.9963 35.1648 32H1.8352C1.3483 31.9995 0.881519 31.8133 0.537405 31.4823C0.193292 31.1513 -2.46892e-07 30.7026 0 30.2347V1.76533ZM7.4 21.3333V24.8889H29.6V21.3333H7.4ZM7.4 7.11111V17.7778H18.5V7.11111H7.4ZM22.2 7.11111V10.6667H29.6V7.11111H22.2ZM22.2 14.2222V17.7778H29.6V14.2222H22.2ZM11.1 10.6667H14.8V14.2222H11.1V10.6667Z" fill="white"/>
</svg>
