<svg width="22" height="14" viewBox="0 0 22 14" fill="none" xmlns="http://www.w3.org/2000/svg">
<path d="M11.0435 6.68164H17.4348M4.65217 6.68164C3.92571 6.68164 3.229 6.39191 2.71532 5.87618C2.20163 5.36046 1.91304 4.66099 1.91304 3.93164C1.91304 3.2023 2.20163 2.50282 2.71532 1.9871C3.229 1.47137 3.92571 1.18164 4.65217 1.18164C5.37864 1.18164 6.07535 1.47137 6.58903 1.9871C7.10272 2.50282 7.3913 3.2023 7.3913 3.93164C7.3913 4.66099 7.10272 5.36046 6.58903 5.87618C6.07535 6.39191 5.37864 6.68164 4.65217 6.68164ZM8.30435 12.1816V10.3483C8.30435 8.28581 6.67274 6.68164 4.6193 6.68164H4.66861C2.61426 6.68164 1 8.28581 1 10.3483V12.1816H8.30435ZM11.0435 2.09831H22H11.0435ZM11.0435 11.265H20.1739H11.0435Z" stroke="#6C9496" stroke-width="2"/>
</svg>
