<svg width="17" height="17" viewBox="0 0 17 17" fill="none" xmlns="http://www.w3.org/2000/svg">
<path d="M8.5 8.13435C7.75283 8.13435 7.02243 7.90913 6.40118 7.48719C5.77993 7.06524 5.29572 6.46552 5.00979 5.76385C4.72386 5.06218 4.64905 4.29009 4.79481 3.5452C4.94058 2.80031 5.30038 2.11609 5.82871 1.57906C6.35704 1.04202 7.03018 0.676299 7.76299 0.528132C8.49581 0.379965 9.2554 0.45601 9.94569 0.74665C10.636 1.03729 11.226 1.52947 11.6411 2.16096C12.0562 2.79244 12.2778 3.53487 12.2778 4.29435C12.2767 5.31243 11.8783 6.28848 11.1701 7.00837C10.4618 7.72827 9.50159 8.1332 8.5 8.13435ZM13.2222 8.77435C12.475 8.77435 11.7447 8.99956 11.1234 9.4215C10.5021 9.84345 10.0179 10.4432 9.73201 11.1448C9.44608 11.8465 9.37127 12.6186 9.51703 13.3635C9.6628 14.1084 10.0226 14.7926 10.5509 15.3296C11.0793 15.8667 11.7524 16.2324 12.4852 16.3806C13.218 16.5287 13.9776 16.4527 14.6679 16.162C15.3582 15.8714 15.9482 15.3792 16.3633 14.7477C16.7784 14.1162 17 13.3738 17 12.6143C16.9989 11.5963 16.6005 10.6202 15.8923 9.90032C15.184 9.18043 14.2238 8.77549 13.2222 8.77435ZM3.77778 8.77435C3.03061 8.77435 2.30021 8.99956 1.67896 9.4215C1.05771 9.84345 0.573499 10.4432 0.287568 11.1448C0.00163686 11.8465 -0.0731758 12.6186 0.0725906 13.3635C0.218357 14.1084 0.578156 14.7926 1.10649 15.3296C1.63482 15.8667 2.30795 16.2324 3.04077 16.3806C3.77359 16.5287 4.53317 16.4527 5.22347 16.162C5.91377 15.8714 6.50378 15.3792 6.91889 14.7477C7.33399 14.1162 7.55556 13.3738 7.55556 12.6143C7.55443 11.5963 7.15606 10.6202 6.44783 9.90032C5.7396 9.18043 4.77936 8.77549 3.77778 8.77435Z" fill="#6C9496"/>
</svg>
