<svg width="16" height="19" viewBox="0 0 16 19" fill="none" xmlns="http://www.w3.org/2000/svg">
<path d="M2.8125 4.01123H14.625C14.9297 4.01123 15.1934 4.11963 15.416 4.33643C15.6387 4.55322 15.75 4.81982 15.75 5.13623V16.3862C15.75 16.9604 15.3604 17.479 14.5811 17.9419C13.8018 18.4048 13.0664 18.6362 12.375 18.6362H2.25C1.62891 18.6362 1.09863 18.4165 0.65918 17.9771C0.219727 17.5376 0 17.0073 0 16.3862V2.88623C0 2.26514 0.219727 1.73486 0.65918 1.29541C1.09863 0.855957 1.62891 0.63623 2.25 0.63623H14.625C14.9297 0.63623 15.1934 0.747559 15.416 0.970215C15.6387 1.19287 15.75 1.45947 15.75 1.77002C15.75 2.08057 15.6387 2.34424 15.416 2.56104C15.1934 2.77783 14.9297 2.88623 14.625 2.88623H2.8125C2.66016 2.88623 2.52832 2.94189 2.41699 3.05322C2.30566 3.16455 2.25 3.29639 2.25 3.44873C2.25 3.60107 2.30566 3.73291 2.41699 3.84424C2.52832 3.95557 2.66016 4.01123 2.8125 4.01123ZM6.75 16.9487C6.75 17.1011 6.80566 17.2329 6.91699 17.3442C7.02832 17.4556 7.16016 17.5112 7.3125 17.5112H8.4375C8.58984 17.5112 8.72168 17.4556 8.83301 17.3442C8.94434 17.2329 9 17.1011 9 16.9487V15.8237C9 15.6714 8.94434 15.5396 8.83301 15.4282C8.72168 15.3169 8.58984 15.2612 8.4375 15.2612H7.3125C7.16016 15.2612 7.02832 15.3169 6.91699 15.4282C6.80566 15.5396 6.75 15.6714 6.75 15.8237V16.9487ZM3.375 9.63623C3.375 9.78857 3.43066 9.92041 3.54199 10.0317C3.65332 10.1431 3.78516 10.1987 3.9375 10.1987H5.0625C5.21484 10.1987 5.34668 10.1431 5.45801 10.0317C5.56934 9.92041 5.625 9.78857 5.625 9.63623C5.625 9.31982 5.84473 9.05322 6.28418 8.83643C6.72363 8.61963 7.25391 8.51123 7.875 8.51123C8.49609 8.51123 9.02637 8.62256 9.46582 8.84521C9.90527 9.06787 10.125 9.33154 10.125 9.63623C10.125 9.95264 9.90527 10.2192 9.46582 10.436C9.02637 10.6528 8.49609 10.7612 7.875 10.7612C7.57031 10.7612 7.30664 10.8726 7.08398 11.0952C6.86133 11.3179 6.75 11.5815 6.75 11.8862V13.5737C6.75 13.7261 6.80566 13.8579 6.91699 13.9692C7.02832 14.0806 7.16016 14.1362 7.3125 14.1362H8.4375C8.58984 14.1362 8.72168 14.0806 8.83301 13.9692C8.94434 13.8579 9 13.7261 9 13.5737V12.9058C9.98438 12.7183 10.793 12.3198 11.4258 11.7104C12.0586 11.1011 12.375 10.4097 12.375 9.63623C12.375 8.69873 11.9355 7.90186 11.0566 7.24561C10.1777 6.58936 9.11719 6.26123 7.875 6.26123C7.27734 6.26123 6.69434 6.34033 6.12598 6.49854C5.55762 6.65674 5.07715 6.85303 4.68457 7.0874C4.29199 7.32178 3.97559 7.56787 3.73535 7.82568C3.49512 8.0835 3.375 8.31201 3.375 8.51123V9.63623Z" fill="#6C9496"/>
</svg>
