<svg width="44" height="44" viewBox="0 0 44 44" fill="none" xmlns="http://www.w3.org/2000/svg">
<path d="M44 22C44 25.9893 43.0173 29.6707 41.052 33.044C39.0867 36.4173 36.4173 39.0867 33.044 41.052C29.6707 43.0173 25.9893 44 22 44C18.0107 44 14.3293 43.0173 10.956 41.052C7.58267 39.0867 4.91333 36.4173 2.948 33.044C0.982667 29.6707 0 25.9893 0 22C0 18.0107 0.982667 14.3293 2.948 10.956C4.91333 7.58267 7.58267 4.91333 10.956 2.948C14.3293 0.982667 18.0107 0 22 0C25.9893 0 29.6707 0.982667 33.044 2.948C36.4173 4.91333 39.0867 7.58267 41.052 10.956C43.0173 14.3293 44 18.0107 44 22ZM29.084 32.208L32.208 29.084L25.124 22L32.208 14.916L29.084 11.792L22 18.876L14.916 11.792L11.792 14.916L18.876 22L11.792 29.084L14.916 32.208L22 25.124L29.084 32.208Z" fill="#F14336"/>
</svg>
