<svg width="18" height="18" viewBox="0 0 18 18" fill="none" xmlns="http://www.w3.org/2000/svg">
<rect width="17" height="17" transform="matrix(-1 0 0 1 17 0)" fill="white"/>
<path fill-rule="evenodd" clip-rule="evenodd" d="M9.00051 9.97924L11.5898 12.7861C11.8496 13.0698 12.0186 13.0728 12.2831 12.7861L12.8026 12.2228C13.0571 11.947 13.0744 11.7659 12.8026 11.4713L10.0613 8.50011L12.8028 5.52889C13.0596 5.24963 13.0646 5.06117 12.8028 4.77715L12.2833 4.21414C12.0138 3.92191 11.8473 3.93541 11.5901 4.21414L9.00051 7.02099L6.4112 4.2144C6.15394 3.93568 5.98744 3.92218 5.71793 4.2144L5.19842 4.77741C4.93641 5.06143 4.94116 5.2499 5.19842 5.52915L7.93973 8.50011L5.19842 11.4713C4.92666 11.7659 4.94116 11.947 5.19842 12.2228L5.71768 12.7861C5.97994 13.0728 6.14894 13.0698 6.41095 12.7861L9.00051 9.97924Z" fill="#949494"/>
</svg>
