<svg width="21" height="16" viewBox="0 0 21 16" fill="none" xmlns="http://www.w3.org/2000/svg">
<path d="M20.25 0H0.75C0.335156 0 0 0.325 0 0.727273V15.2727C0 15.675 0.335156 16 0.75 16H20.25C20.6648 16 21 15.675 21 15.2727V0.727273C21 0.325 20.6648 0 20.25 0ZM1.6875 1.63636H19.3125V4.36364H1.6875V1.63636ZM19.3125 14.3636H1.6875V6.36364H19.3125V14.3636ZM13.7578 12.9091H17.625C17.7281 12.9091 17.8125 12.8273 17.8125 12.7273V11.0909C17.8125 10.9909 17.7281 10.9091 17.625 10.9091H13.7578C13.6547 10.9091 13.5703 10.9909 13.5703 11.0909V12.7273C13.5703 12.8273 13.6547 12.9091 13.7578 12.9091Z" fill="#828282"/>
</svg>
