<svg width="27" height="27" viewBox="0 0 27 27" fill="none" xmlns="http://www.w3.org/2000/svg">
<path d="M21.6001 8.09985H8.10009C6.61509 8.09985 5.40009 9.31485 5.40009 10.7999V18.8999C5.40009 19.6159 5.68455 20.3027 6.1909 20.809C6.69725 21.3154 7.384 21.5999 8.10009 21.5999H21.6001C23.0986 21.5999 24.3001 20.3984 24.3001 18.8999V10.7999C24.3001 10.0838 24.0156 9.39701 23.5093 8.89066C23.0029 8.38432 22.3162 8.09985 21.6001 8.09985ZM16.2001 18.8999H8.10009V16.1999H16.2001V18.8999ZM21.6001 13.4999H8.10009V10.7999H21.6001V13.4999Z" fill="#6C9496"/>
<path d="M27 5.4H2.7V27H0V0H2.7V2.7H27V5.4Z" fill="#6C9496"/>
</svg>
