<svg width="19" height="20" viewBox="0 0 19 20" fill="none" xmlns="http://www.w3.org/2000/svg">
<path d="M17.4476 11.0359C17.2926 10.8625 17.2071 10.6397 17.2071 10.4089C17.2071 10.1782 17.2926 9.95536 17.4476 9.78202L18.6853 8.41421C18.8217 8.26476 18.9064 8.07672 18.9273 7.87706C18.9481 7.6774 18.904 7.47639 18.8014 7.30286L16.8674 4.0163C16.7658 3.84297 16.6111 3.70558 16.4253 3.62371C16.2395 3.54184 16.0321 3.51967 15.8328 3.56037L14.0148 3.92132C13.7835 3.96827 13.5427 3.93043 13.3378 3.81493C13.133 3.69944 12.9782 3.51428 12.9028 3.2944L12.313 1.55614C12.2481 1.36748 12.1245 1.20361 11.9597 1.0877C11.7948 0.971797 11.597 0.909713 11.3943 0.910227H7.52642C7.31555 0.899416 7.10688 0.956701 6.93227 1.07333C6.75767 1.18997 6.62672 1.35953 6.55944 1.55614L6.01793 3.2944C5.94251 3.51428 5.78777 3.69944 5.5829 3.81493C5.37804 3.93043 5.13723 3.96827 4.90591 3.92132L3.03965 3.56037C2.85065 3.53413 2.65798 3.56343 2.4859 3.64456C2.31383 3.7257 2.17004 3.85504 2.07267 4.0163L0.138714 7.30286C0.0334681 7.47445 -0.0138538 7.67434 0.00351356 7.87394C0.0208809 8.07355 0.102048 8.26265 0.235411 8.41421L1.46347 9.78202C1.6185 9.95536 1.70399 10.1782 1.70399 10.4089C1.70399 10.6397 1.6185 10.8625 1.46347 11.0359L0.235411 12.4037C0.102048 12.5552 0.0208809 12.7443 0.00351356 12.9439C-0.0138538 13.1435 0.0334681 13.3434 0.138714 13.515L2.07267 16.8016C2.1743 16.9749 2.32903 17.1123 2.51482 17.1942C2.70061 17.276 2.90797 17.2982 3.10733 17.2575L4.92525 16.8966C5.15657 16.8496 5.39738 16.8874 5.60224 17.0029C5.80711 17.1184 5.96185 17.3036 6.03727 17.5235L6.62713 19.2617C6.69441 19.4583 6.82536 19.6279 6.99996 19.7445C7.17457 19.8612 7.38324 19.9185 7.59411 19.9076H11.462C11.6647 19.9082 11.8625 19.8461 12.0273 19.7302C12.1922 19.6143 12.3158 19.4504 12.3806 19.2617L12.9705 17.5235C13.0459 17.3036 13.2007 17.1184 13.4055 17.0029C13.6104 16.8874 13.8512 16.8496 14.0825 16.8966L15.9004 17.2575C16.0998 17.2982 16.3072 17.276 16.493 17.1942C16.6787 17.1123 16.8335 16.9749 16.9351 16.8016L18.8691 13.515C18.9717 13.3415 19.0158 13.1405 18.995 12.9408C18.9741 12.7411 18.8894 12.5531 18.753 12.4037L17.4476 11.0359ZM16.0068 12.3087L16.7804 13.1636L15.5427 15.2723L14.4016 15.0443C13.7052 14.9045 12.9807 15.0207 12.3657 15.3709C11.7508 15.7211 11.2881 16.2809 11.0656 16.944L10.6981 18.0079H8.22264L7.87453 16.9251C7.65199 16.2619 7.18931 15.7021 6.57434 15.3519C5.95936 15.0017 5.2349 14.8855 4.53846 15.0253L3.39743 15.2533L2.14036 13.1541L2.91394 12.2992C3.38965 11.7767 3.65264 11.1004 3.65264 10.3994C3.65264 9.6985 3.38965 9.02215 2.91394 8.49969L2.14036 7.64481L3.37809 5.5551L4.51912 5.78306C5.21556 5.92291 5.94002 5.8067 6.555 5.4565C7.16997 5.1063 7.63265 4.54648 7.85519 3.88332L8.22264 2.80997H10.6981L11.0656 3.89282C11.2881 4.55598 11.7508 5.1158 12.3657 5.466C12.9807 5.8162 13.7052 5.93241 14.4016 5.79256L15.5427 5.56459L16.7804 7.67331L16.0068 8.52819C15.5364 9.04944 15.2767 9.72188 15.2767 10.4184C15.2767 11.115 15.5364 11.7874 16.0068 12.3087ZM9.46037 6.60945C8.69537 6.60945 7.94755 6.83229 7.31148 7.24978C6.6754 7.66727 6.17964 8.26067 5.88689 8.95494C5.59414 9.6492 5.51754 10.4131 5.66679 11.1502C5.81603 11.8872 6.18441 12.5642 6.72535 13.0956C7.26629 13.6269 7.95548 13.9888 8.70578 14.1354C9.45608 14.282 10.2338 14.2068 10.9406 13.9192C11.6473 13.6316 12.2514 13.1446 12.6764 12.5198C13.1014 11.895 13.3283 11.1604 13.3283 10.4089C13.3283 9.40125 12.9208 8.43484 12.1954 7.72229C11.47 7.00975 10.4862 6.60945 9.46037 6.60945ZM9.46037 12.3087C9.07787 12.3087 8.70396 12.1973 8.38593 11.9885C8.06789 11.7798 7.82001 11.4831 7.67363 11.1359C7.52726 10.7888 7.48896 10.4068 7.56358 10.0383C7.6382 9.6698 7.82239 9.3313 8.09286 9.06562C8.36333 8.79993 8.70793 8.619 9.08308 8.5457C9.45823 8.47239 9.84708 8.51002 10.2005 8.6538C10.5539 8.79759 10.8559 9.04109 11.0684 9.3535C11.2809 9.66591 11.3943 10.0332 11.3943 10.4089C11.3943 10.9128 11.1906 11.396 10.8279 11.7523C10.4652 12.1085 9.97329 12.3087 9.46037 12.3087Z" fill="#6C9496"/>
</svg>
