<svg width="18" height="21" viewBox="0 0 18 21" fill="none" xmlns="http://www.w3.org/2000/svg">
<path d="M12.9278 0.54541L17.9 5.51764V19.4329C17.901 19.5635 17.8761 19.693 17.827 19.814C17.7779 19.935 17.7054 20.0452 17.6137 20.1382C17.522 20.2311 17.4129 20.3052 17.2926 20.356C17.1723 20.4068 17.0431 20.4334 16.9126 20.4343H0.987485C0.726322 20.4325 0.476357 20.328 0.291589 20.1435C0.106821 19.9589 0.00208302 19.709 0 19.4479V1.5319C0 0.986945 0.444518 0.54541 0.993452 0.54541H12.9278ZM11.9334 2.5343H1.98889V18.4454H15.9111V6.51209H11.9334V2.5343Z" fill="#6C9496"/>
<path d="M9.4129 11.8159V7.83813H7.42401V13.8048H12.3962V11.8159H9.4129Z" fill="#6C9496"/>
</svg>
