<svg width="22" height="28" viewBox="0 0 22 28" fill="none" xmlns="http://www.w3.org/2000/svg">
<path d="M17.2144 0.278809L18.7377 3.14739L21.9954 3.54325L19.6049 5.69756L20.083 8.88455L17.2144 7.09169L14.3459 8.88455L14.824 5.69756L12.4335 3.54325L15.7801 3.14739L17.2144 0.278809Z" fill="#6C9496"/>
<path d="M16.9439 11.0352L15.0908 10.559C14.7586 11.8386 14.0546 12.9911 13.0678 13.8708C12.0809 14.7505 10.8555 15.3179 9.54625 15.5015C8.23703 15.685 6.90277 15.4764 5.71205 14.9021C4.52133 14.3277 3.52756 13.4132 2.8563 12.2743C2.18504 11.1354 1.8664 9.82304 1.94064 8.5031C2.01487 7.18316 2.47866 5.91483 3.2734 4.85836C4.06814 3.80188 5.15818 3.00466 6.4058 2.5674C7.65342 2.13015 9.00265 2.07248 10.283 2.40169L10.7602 0.549545C8.89367 0.0640396 6.91812 0.22031 5.15115 0.99323C3.38419 1.76615 1.92848 3.11081 1.01806 4.81102C0.107651 6.51123 -0.204565 8.46821 0.131614 10.3673C0.467793 12.2664 1.43283 13.9973 2.87158 15.2816V27.0524L8.60874 23.2276L14.3459 27.0524V15.2988C15.6159 14.1669 16.5202 12.6827 16.9439 11.0352ZM12.4335 23.4791L8.60874 20.9289L4.78397 23.4791V16.582C5.97064 17.1782 7.28007 17.4891 8.60806 17.4901C9.93605 17.4911 11.246 17.1821 12.4335 16.5878V23.4791Z" fill="#6C9496"/>
</svg>
