<svg width="16" height="13" viewBox="0 0 16 13" fill="none" xmlns="http://www.w3.org/2000/svg">
<path d="M13.7812 1.96875H11.3906L10.8211 0.372656C10.7817 0.26344 10.7096 0.169034 10.6146 0.102336C10.5196 0.0356368 10.4063 -0.000102413 10.2902 2.20435e-07H4.89727C4.65996 2.20435e-07 4.44727 0.149414 4.36816 0.372656L3.79688 1.96875H1.40625C0.629297 1.96875 0 2.59805 0 3.375V11.3906C0 12.1676 0.629297 12.7969 1.40625 12.7969H13.7812C14.5582 12.7969 15.1875 12.1676 15.1875 11.3906V3.375C15.1875 2.59805 14.5582 1.96875 13.7812 1.96875ZM7.59375 9.98438C6.03984 9.98438 4.78125 8.72578 4.78125 7.17188C4.78125 5.61797 6.03984 4.35938 7.59375 4.35938C9.14766 4.35938 10.4062 5.61797 10.4062 7.17188C10.4062 8.72578 9.14766 9.98438 7.59375 9.98438ZM5.90625 7.17188C5.90625 7.61943 6.08404 8.04865 6.40051 8.36512C6.71697 8.68159 7.1462 8.85938 7.59375 8.85938C8.0413 8.85938 8.47053 8.68159 8.78699 8.36512C9.10346 8.04865 9.28125 7.61943 9.28125 7.17188C9.28125 6.72432 9.10346 6.2951 8.78699 5.97863C8.47053 5.66216 8.0413 5.48438 7.59375 5.48438C7.1462 5.48438 6.71697 5.66216 6.40051 5.97863C6.08404 6.2951 5.90625 6.72432 5.90625 7.17188Z" fill="white"/>
</svg>
