<svg width="51" height="36" viewBox="0 0 51 36" fill="none" xmlns="http://www.w3.org/2000/svg">
<path d="M27.8928 35.4999V25.357H35.4999L25.3571 12.6785L15.2142 25.357H22.8214V35.4999H27.8928Z" fill="#0A4D50" fill-opacity="0.35"/>
<path d="M12.6786 35.5H17.75V30.4286H12.6786C8.4845 30.4286 5.07143 27.0155 5.07143 22.8214C5.07143 19.2613 8.11175 15.833 11.8494 15.1762L13.3226 14.9176L13.8095 13.5027C15.5921 8.30193 20.0195 5.07143 25.3571 5.07143C32.3481 5.07143 38.0357 10.759 38.0357 17.75V20.2857H40.5714C43.3683 20.2857 45.6429 22.5603 45.6429 25.3571C45.6429 28.154 43.3683 30.4286 40.5714 30.4286H32.9643V35.5H40.5714C46.1652 35.5 50.7143 30.9509 50.7143 25.3571C50.7104 23.0842 49.945 20.878 48.5404 19.091C47.1358 17.3039 45.1729 16.039 42.9651 15.4983C41.857 6.77036 34.3843 0 25.3571 0C18.3687 0 12.2982 4.08503 9.52668 10.5232C4.07996 12.1511 0 17.2936 0 22.8214C0 29.8124 5.68761 35.5 12.6786 35.5Z" fill="#0A4D50" fill-opacity="0.35"/>
</svg>
