<svg width="11" height="19" viewBox="0 0 11 19" fill="none" xmlns="http://www.w3.org/2000/svg">
<path d="M9.86501 0H7.39875C4.63655 0 2.84112 1.83489 2.84112 4.67601V6.82658H0.3946C0.17757 6.82658 0 7.00415 0 7.22118V10.3385C0 10.5556 0.17757 10.7331 0.3946 10.7331H2.86085V18.6054C2.86085 18.8224 3.03842 19 3.25545 19H6.49117C6.7082 19 6.88577 18.8224 6.88577 18.6054V10.7134H9.78609C10.0031 10.7134 10.1807 10.5358 10.1807 10.3188V7.20145C10.1807 7.1028 10.1412 7.00415 10.0623 6.92523C9.98339 6.84631 9.88474 6.80685 9.78609 6.80685H6.86604V4.99169C6.86604 4.12357 7.08307 3.66978 8.20768 3.66978H9.86501C10.082 3.66978 10.2596 3.49221 10.2596 3.27518V0.3946C10.2596 0.17757 10.082 0 9.86501 0Z" fill="#4267B2"/>
</svg>
