<svg width="18" height="18" viewBox="0 0 18 18" fill="none" xmlns="http://www.w3.org/2000/svg">
<path d="M3.99023 10.8773L3.36445 13.2152L1.07578 13.2644C0.386719 11.9953 0 10.5434 0 9C0 7.50586 0.362109 6.09961 1.00547 4.86211L3.04453 5.23476L3.9375 7.25976C3.75117 7.80468 3.64922 8.38828 3.64922 9C3.64922 9.66093 3.76875 10.2937 3.99023 10.8773Z" fill="#FBBB00"/>
<path d="M17.8417 7.31953C17.9437 7.86446 17.9999 8.42696 17.9999 9C17.9999 9.64336 17.9331 10.2727 17.803 10.8809C17.3636 12.9445 16.221 14.7445 14.6354 16.0207L12.069 15.8906L11.7069 13.6231C12.7581 13.0043 13.5808 12.041 14.0132 10.8844H9.19678V7.31953H14.08H17.8417Z" fill="#518EF8"/>
<path d="M14.6355 16.0172C13.0922 17.2582 11.134 18 9 18C5.57227 18 2.59102 16.084 1.07227 13.2645L3.99023 10.8773C4.74961 12.9059 6.70781 14.3508 9 14.3508C9.98438 14.3508 10.909 14.0836 11.7035 13.6195L14.6355 16.0172Z" fill="#28B446"/>
<path d="M14.7444 2.0707L11.83 4.45781C11.0108 3.94453 10.0405 3.64922 8.9999 3.64922C6.65498 3.64922 4.66162 5.16094 3.9374 7.25977L1.00537 4.85859C2.50303 1.97227 5.52295 0 8.9999 0C11.1831 0 13.187 0.776953 14.7444 2.0707Z" fill="#F14336"/>
</svg>
