<svg width="78" height="39" viewBox="0 0 78 39" fill="none" xmlns="http://www.w3.org/2000/svg">
<path d="M0.594436 24.5226C3.50305 24.3695 3.77096 23.7189 3.77096 20.6572V7.33881C3.77096 4.35365 3.50306 3.70304 0.326538 3.51168V3.01416H9.01412V3.51168C5.95242 3.70304 5.68452 4.35365 5.68452 7.33881V13.4239C6.3734 13.2709 7.21537 12.8881 8.05734 12.2758C10.6981 10.1326 15.0993 5.34871 15.0993 4.4302C15.0993 3.93267 14.5252 3.81785 12.7264 3.51168V3.01416H21.3375V3.51168C18.8881 3.85612 17.6252 4.58329 15.8647 6.11414C14.7931 7.03265 11.3869 10.0944 8.66968 12.8116C11.3869 15.835 16.1326 20.7338 17.3573 21.8436C19.5387 23.7955 20.1128 24.293 21.9498 24.5226V25.0202H17.5869C14.0277 21.3844 11.4635 18.8585 7.9808 14.9548C7.36846 14.3425 6.9092 14.0363 6.25859 14.0363C6.06723 14.0363 5.87588 14.0746 5.68452 14.1128V20.6955C5.72279 23.7572 5.95242 24.4078 9.16721 24.5609V25.0584H0.594436V24.5226Z" fill="white"/>
<path d="M34.0818 25.4026C34.0052 25.4026 33.3164 25.1347 32.9719 24.752C32.5509 24.2928 32.3978 23.8718 32.2065 23.1064C30.8287 24.178 29.2596 25.4026 27.9584 25.4026C25.5473 25.4026 23.9016 23.5656 23.9016 21.3842C23.9016 19.815 24.9732 18.6669 27.4226 17.9397C29.2213 17.4039 31.4411 16.562 32.2448 16.0645C32.2448 14.3422 32.2065 11.2805 29.0682 11.2805C28.4942 11.3188 26.6189 11.4719 26.0065 14.2657C25.93 14.4953 25.7386 14.878 25.2411 14.878C24.7436 14.878 24.1695 14.3805 24.1695 13.6916C24.1695 13.1558 24.5905 12.7348 25.1646 12.4287C26.0448 11.8163 28.3794 10.4003 30.1016 10.0176C31.8238 10.0176 34.0052 11.1274 34.0052 14.2274V21.7669C34.0052 23.2212 34.541 23.757 35.2682 23.757C35.8805 23.757 36.4163 23.5274 36.799 23.2977L37.1052 23.9101L34.0818 25.4026ZM32.2065 16.983C31.4793 17.4039 29.2596 18.2459 28.4942 18.5521C26.925 19.1644 25.9683 19.815 25.9683 21.1163C25.9683 22.9533 27.4608 23.8718 28.7238 23.8718C29.9102 23.8718 31.4793 22.9915 32.2448 22.073V16.983H32.2065Z" fill="white"/>
<path d="M37.7177 24.5226C39.9757 24.3696 40.3201 23.872 40.3201 21.7288V5.27217C40.3201 2.86108 40.0522 2.59318 37.7942 2.40183V1.98084C39.5164 1.75121 41.43 1.13888 42.004 0.794434V21.7288C42.004 23.9103 42.3102 24.4078 44.6448 24.5226V25.0202H37.7177V24.5226Z" fill="white"/>
<path d="M46.1755 24.5228C48.4335 24.3314 48.778 23.8722 48.778 21.8438V14.534C48.778 12.276 48.5484 12.1229 46.52 11.7785V11.3192C48.0126 11.013 49.1224 10.6303 50.4619 9.90317V21.8438C50.4619 23.8722 50.8064 24.3314 53.1026 24.5228V25.0203H46.1755V24.5228ZM50.9594 3.66495C50.9594 4.3921 50.3471 5.08098 49.62 5.08098C48.9311 5.08098 48.2805 4.43037 48.2805 3.66495C48.2805 2.82298 48.9311 2.17236 49.62 2.17236C50.4619 2.21063 50.9594 2.93779 50.9594 3.66495Z" fill="white"/>
<path d="M54.6718 24.5226C56.815 24.3696 57.1211 23.9486 57.1211 21.7671V11.5487H54.5952L54.4421 11.166L55.3989 10.4388H57.1211C57.1211 8.94622 57.1594 7.33883 57.389 6.68822C57.6952 5.96106 58.3075 4.12403 60.0298 2.66973C61.331 1.59813 62.5939 0.98579 63.7803 0.794434C65.005 0.794434 66.6507 1.9043 66.6507 2.63146C66.6507 3.35861 65.847 3.70305 65.5791 3.70305C65.426 3.70305 65.3112 3.62651 65.1581 3.47342C64.5458 2.86108 63.4359 2.4401 62.0964 2.4401C61.2927 2.4401 60.6038 2.708 60.0298 3.32034C59.4557 3.97095 58.8433 6.11414 58.8051 8.8314L58.7668 10.4388H63.0532C63.1297 10.6302 63.168 10.745 63.168 10.9363C63.168 11.166 63.0532 11.4721 62.7853 11.5869H58.7668V21.8054C58.7668 23.9868 59.0347 24.4461 61.9816 24.6375V25.0584H54.5952V24.5226H54.6718Z" fill="white"/>
<path d="M74.458 25.4026C74.3815 25.4026 73.6926 25.1347 73.3481 24.752C72.9272 24.2928 72.7741 23.8718 72.5827 23.1064C71.2049 24.178 69.6358 25.4026 68.3346 25.4026C65.9235 25.4026 64.2778 23.5656 64.2778 21.3842C64.2778 19.815 65.3494 18.6669 67.7988 17.9397C69.5975 17.4039 71.8173 16.562 72.621 16.0645C72.621 14.3422 72.5827 11.2805 69.4445 11.2805C68.8704 11.3188 66.9951 11.4719 66.3828 14.2657C66.3062 14.4953 66.1149 14.878 65.6173 14.878C65.1198 14.878 64.5457 14.3805 64.5457 13.6916C64.5457 13.1558 64.9667 12.7348 65.5408 12.4287C66.421 11.8163 68.7556 10.4003 70.4778 10.0176C72.2 10.0176 74.3815 11.1274 74.3815 14.2274V21.7669C74.3815 23.2212 74.9173 23.757 75.6444 23.757C76.2568 23.757 76.7926 23.5274 77.1753 23.2977L77.4814 23.9101L74.458 25.4026ZM72.5827 16.983C71.8556 17.4039 69.6358 18.2459 68.8704 18.5521C67.3013 19.1644 66.3445 19.815 66.3445 21.1163C66.3445 22.9533 67.8371 23.8718 69.1 23.8718C70.2864 23.8718 71.8556 22.9915 72.621 22.073V16.983H72.5827Z" fill="white"/>
<path d="M7.02402 35.2693C6.41167 35.3459 6.41167 35.499 6.41167 35.9582V36.8767C6.41167 37.2212 6.41168 37.5273 6.48822 37.757C5.83761 37.9101 4.95737 38.1779 4.1154 38.1779C1.89566 38.1779 0.326538 36.8385 0.326538 34.8866C0.326538 32.6669 2.20183 31.4805 4.23021 31.4805C5.11045 31.4805 5.87588 31.6718 6.22032 31.7484C6.25859 32.0545 6.29686 32.6286 6.41167 33.241L6.25859 33.2792C5.91415 31.978 5.11045 31.7101 4.07713 31.7101C2.12529 31.7101 1.09196 32.8582 1.09196 34.7335C1.09196 36.1496 1.89566 37.9101 4.15367 37.9101C4.68947 37.9101 5.14872 37.8335 5.45489 37.757C5.76106 37.6804 5.87588 37.5273 5.87588 37.0681V36.1496C5.87588 35.5372 5.83761 35.3459 4.6512 35.2693V35.1162H7.02402V35.2693Z" fill="#D4B581" stroke="#D4B581" stroke-width="0.216" stroke-miterlimit="2.6131"/>
<path d="M14.4869 37.8335C15.061 37.757 15.2906 37.6804 15.2906 37.4508C15.2906 37.1829 14.9845 36.3792 14.6018 35.4607H12.2672C12.1524 35.652 11.6549 37.0298 11.6549 37.336C11.6549 37.6804 11.9228 37.757 12.4968 37.8335V37.9866H10.2006V37.8335C10.9277 37.6804 11.0425 37.6039 11.4252 36.6854L13.645 31.5187L13.7598 31.4805L14.4487 33.3558C14.9079 34.6187 15.3672 35.8817 15.7499 36.8767C16.0561 37.6422 16.1326 37.757 16.8598 37.8718V38.0249H14.5252V37.8335H14.4869ZM13.4919 32.399C13.0709 33.3175 12.6882 34.2743 12.3438 35.1162H14.4869L13.4919 32.399Z" fill="#D4B581" stroke="#D4B581" stroke-width="0.216" stroke-miterlimit="2.6131"/>
<path d="M20.0363 37.8336C20.9548 37.7953 21.0313 37.604 21.0313 36.8003V32.7053C21.0313 31.9016 20.9548 31.7868 20.1128 31.7102V31.5571H22.5239C23.5189 31.5571 24.6288 31.8633 24.6288 33.1645C24.6288 34.0448 24.1696 34.5423 23.4041 34.8867C23.5572 35.1929 23.9782 35.8435 24.3226 36.2645C24.8202 36.8768 25.509 37.7571 26.0448 37.8719L26.0066 37.9867C25.0881 37.9867 24.5905 37.9484 23.0597 35.4225C22.7918 35.0398 22.4856 35.0398 21.6436 35.0398V36.7238C21.6436 37.5275 21.7202 37.7188 22.6004 37.7571V37.9102H20.1128V37.8336H20.0363ZM22.2177 34.925C22.7918 34.925 23.1745 34.8485 23.4424 34.6188C23.7868 34.3509 23.9782 33.93 23.9782 33.3559C23.9782 32.2843 23.2893 31.7868 22.2177 31.7868C21.9498 31.7868 21.7585 31.7868 21.6819 31.825C21.6437 31.825 21.6054 31.8633 21.6054 32.0547V34.925H22.2177Z" fill="#D4B581" stroke="#D4B581" stroke-width="0.216" stroke-miterlimit="2.6131"/>
<path d="M29.1448 37.8334C30.0633 37.7952 30.1398 37.6038 30.1398 36.8001V32.7434C30.1398 31.9397 30.0633 31.7866 29.2213 31.7483V31.5952H32.1682C33.3929 31.5952 34.3879 31.7866 35.0003 32.3989C35.5361 32.8964 35.8423 33.6236 35.8423 34.5038C35.8423 37.1828 33.5077 37.9483 31.4793 37.9483H29.1448V37.8334ZM30.6756 36.8001C30.6756 37.5655 30.8287 37.7569 31.862 37.7569C34.3497 37.7569 35.1916 36.1495 35.1916 34.7717C35.1916 33.6236 34.7324 32.552 33.7756 32.131C33.3163 31.9397 32.6657 31.8248 31.6707 31.8248C31.1349 31.8248 30.867 31.8248 30.7904 31.8631C30.7522 31.8631 30.7139 31.8631 30.7139 32.0545V36.8001H30.6756Z" fill="#D4B581" stroke="#D4B581" stroke-width="0.216" stroke-miterlimit="2.6131"/>
<path d="M39.3633 37.8337C40.3201 37.7955 40.3966 37.6041 40.3966 36.8387V32.8585C40.3966 31.9782 40.3201 31.8251 39.4781 31.7869V31.6338H43.8793C43.8793 31.9782 43.9176 32.5906 43.9558 33.2029L43.7645 33.2412C43.5349 32.2079 43.3435 31.9017 42.1188 31.9017H41.2003C40.9324 31.9017 40.9324 31.94 40.9324 32.1696V34.5424H42.1188C42.9225 34.5424 43.1139 34.4276 43.267 33.777H43.4583V35.6523H43.267C43.1139 34.8868 42.8842 34.8103 42.1188 34.8103H40.9324V36.8004C40.9324 37.7572 41.3534 37.7572 42.1954 37.7572C42.8077 37.7572 43.42 37.7572 43.7645 37.3745C43.9176 37.1831 44.1855 36.8387 44.3385 36.3794H44.5299C44.4534 36.7621 44.262 37.6806 44.1472 38.0251H39.4016V37.8337H39.3633Z" fill="#D4B581" stroke="#D4B581" stroke-width="0.216" stroke-miterlimit="2.6131"/>
<path d="M47.783 37.8336C48.3953 37.7953 48.6632 37.604 48.7397 37.2978C48.8163 36.9917 48.8546 36.4176 48.8546 35.4225V33.2028C48.8546 32.2843 48.8163 32.3608 48.6249 32.1312C48.4336 31.9398 48.2422 31.825 47.7064 31.7485V31.5954H48.9694L53.6767 36.9534H53.715V34.0448C53.715 32.0547 53.715 31.7868 52.5286 31.7102V31.5571H55.0545V31.7102C54.4804 31.7485 54.2125 31.9398 54.136 32.246C54.0595 32.5522 54.0212 33.088 54.0212 34.0448V38.0632H53.9064L49.199 32.7053H49.1607V35.4225C49.1607 36.4559 49.199 36.9917 49.2373 37.2978C49.3138 37.604 49.62 37.7953 50.3089 37.8336V37.9867H47.783V37.8336Z" fill="#D4B581" stroke="#D4B581" stroke-width="0.216" stroke-miterlimit="2.6131"/>
<path d="M61.752 33.0879C61.5606 32.5138 61.331 31.7101 60.3359 31.7101C59.6088 31.7101 59.2261 32.1694 59.2261 32.8582C59.2261 33.7002 59.8384 34.0446 60.5273 34.3891C60.9865 34.6187 62.2112 35.0397 62.2112 36.3409C62.2112 37.4125 61.4075 38.1779 60.1063 38.1779C59.6853 38.1397 59.3409 38.1014 59.073 38.0249C58.8433 37.9483 58.6903 37.8718 58.652 37.8335C58.5755 37.5656 58.4606 36.8385 58.4224 36.2261H58.5754C58.7285 36.7619 59.1878 37.9101 60.3742 37.9101C61.1396 37.9101 61.6372 37.4891 61.6372 36.5706C61.6372 35.5372 60.7952 35.1928 60.2594 34.8866C60.1828 34.8484 58.6903 34.3508 58.6903 33.1261C58.6903 32.2842 59.3791 31.4805 60.5656 31.4805C60.91 31.4805 61.1779 31.5187 61.752 31.7101C61.7902 32.0545 61.8285 32.4373 61.9051 33.1261H61.752V33.0879Z" fill="#D4B581" stroke="#D4B581" stroke-width="0.216" stroke-miterlimit="2.6131"/>
</svg>
