<svg width="199" height="63" viewBox="0 0 199 63" fill="none" xmlns="http://www.w3.org/2000/svg">
<path fill-rule="evenodd" clip-rule="evenodd" d="M32.6993 31.7859H36.8278V35.476H32.6993V31.7859ZM27.9862 31.7859H32.1147V35.476H27.9862V31.7859ZM32.6993 27.3651H36.8278V31.0552H32.6993V27.3651ZM27.9862 27.3651H32.1512V31.0552H27.9862V27.3651ZM40.189 34.0146C44.8656 38.5815 45.9251 37.4124 50.3459 34.8914C53.8899 32.882 59.2971 35.1106 61.1239 38.0335C49.4691 43.258 53.0861 36.6816 48.2634 38.545L49.871 40.0429C51.8439 41.5043 54.3283 42.3446 56.9223 42.0524C59.4433 41.7601 63.4987 39.5679 64.7044 37.8873C50.3459 27.2189 48.7384 35.6586 45.5598 35.6221C43.4407 34.7087 42.1254 32.9185 40.189 34.0146ZM35.0375 14.395C36.2798 7.08789 34.8549 6.39371 41.4678 3.47087C43.0754 12.4951 39.6776 13.7373 33.978 16.441C33.7588 18.9619 33.2108 21.9578 34.5626 23.5654C35.549 21.7752 35.2933 20.4233 35.4394 17.9389C40.8102 13.847 44.4272 15.6007 43.0023 0.0365355C38.7642 1.27874 34.5626 4.16505 33.8684 8.91466C33.2108 13.7008 34.1242 13.4816 35.0375 14.395ZM48.2634 24.3692C52.3919 25.7941 51.4785 19.5465 61.0143 24.9537C53.2322 33.43 48.9941 25.2095 45.1579 25.8306C44.6098 25.9402 43.185 26.5978 42.4908 27.0363L40.3352 28.863C43.6599 30.1418 43.4772 27.0728 46.0347 27.3651C47.7519 27.5843 49.2133 29.9226 52.0265 30.3245C56.4839 30.9456 61.9277 26.5978 64.814 25.0999C61.8911 20.7156 54.9494 18.6696 48.848 23.675C48.7749 23.7481 48.5922 24.1134 48.5557 24.0038C48.4826 23.9308 48.3365 24.2596 48.2634 24.3692ZM45.7059 49.3595C41.6505 44.6098 49.1037 40.5909 38.4353 36.7912C39.0199 39.8602 40.3717 38.6546 42.7465 41.139C42.7831 46.3636 42.3812 49.4325 45.9251 51.7343C48.0442 53.1226 52.0631 55.4974 54.584 56.2281C54.8763 47.4596 53.561 43.9157 46.4366 41.3947C46.8385 46.1078 53.2688 42.235 52.1727 53.2688C50.3825 52.6111 46.7289 50.5651 45.7059 49.3595ZM3.76316 24.8807C13.5547 19.6926 12.1663 25.7941 16.5871 24.3692C16.1852 23.8942 16.441 24.0404 15.6737 23.4193C13.6643 21.7752 10.4492 20.4233 7.85513 20.7522C5.22458 21.081 1.27874 23.4558 0 25.0634C1.93638 26.1594 6.21103 29.0092 8.54931 29.886C13.3355 31.6763 15.8199 28.4612 19.2177 27.2189C19.6926 27.2555 21.7752 29.0092 23.2366 29.1553C24.223 29.2649 24.0769 29.0092 24.5153 28.863C24.1134 28.4612 24.0769 28.3515 23.4558 27.8401L19.6561 25.8306C16.9525 25.3922 10.2299 33.1012 3.76316 24.8807ZM30.909 16.4044C24.9537 13.92 22.0309 12.0933 23.3827 3.47087C32.4435 7.34364 27.4016 8.47624 30.1783 14.0662C31.4571 12.7144 30.7994 16.6237 31.1648 11.5452C31.2013 11.0337 31.0186 8.80506 30.909 8.25702C30.6167 6.50332 29.8495 5.33418 28.9361 4.38426C27.5478 2.99591 23.9673 0.657639 21.7752 0C20.4233 19.3638 27.3286 14.1392 29.3745 17.9389C29.7034 20.7887 29.0823 21.4829 30.2149 23.5654C31.7128 21.8848 31.1648 20.5695 30.909 16.4044ZM3.72662 37.9969C4.74961 36.499 2.95938 38.1431 5.00536 36.5355C15.6737 28.1689 14.6142 42.6369 24.6615 34.0146C22.8347 32.8454 21.3733 34.5991 19.2177 35.549C16.514 35.6952 13.2259 27.3286 0.182677 37.8873C1.24221 39.4949 5.73607 41.9428 8.36663 42.1254C11.7279 42.3446 14.943 40.1525 16.5506 38.5084C12.8605 37.0835 13.7373 42.8927 3.72662 37.9969ZM18.3774 21.5194C17.8293 16.8063 11.8375 20.9348 12.6047 9.5723C14.9065 10.2665 17.7197 11.9471 19.1081 13.5547C23.5654 18.8158 15.0892 20.9348 26.3056 26.0498C26.0498 23.0904 24.4422 24.0404 22.1405 21.7752C22.0309 16.514 22.7251 14.1027 18.8523 11.2529C17.3178 10.1203 12.6047 7.27056 10.3395 6.75907C10.2665 13.2624 8.98773 17.7197 18.3774 21.5194ZM23.127 59.3702C23.2366 49.7248 23.7115 49.871 30.8725 46.4366C31.3475 42.8927 31.8224 40.9198 29.9226 39.2757L29.3745 45.0117C27.1824 49.2133 20.8983 42.3812 21.8482 62.9141C24.0404 62.22 28.0958 59.8086 29.3015 58.3107C30.6898 56.63 32.2608 51.0766 30.1783 48.848C28.8996 51.6247 31.0186 57.105 23.127 59.3702ZM22.0674 41.1024C24.3326 38.8372 25.8671 39.7141 26.3056 36.5355L20.4599 40.4448C20.2041 45.4502 22.2501 49.9806 12.6778 53.2688C11.5087 42.235 17.9389 45.8886 18.3774 41.3582C10.1203 45.0483 9.86458 48.1173 10.4857 56.2281C22.2136 50.7113 22.0674 50.0902 22.0674 41.1024ZM44.3541 22.4328C44.9021 17.464 42.4908 12.897 52.2092 9.60884C53.5976 20.7522 46.5828 16.6237 46.5097 21.4829C53.5976 18.8158 54.7302 15.5641 54.5475 6.72253C52.2092 7.27056 47.35 10.2299 45.7059 11.5452C42.1985 14.3585 43.6965 17.3544 42.6004 21.8482L40.2621 23.4923C38.4353 24.8076 39.1661 24.0038 38.2892 26.0863C41.3582 24.9537 42.3812 24.4788 44.3541 22.4328ZM34.0145 54.6206C34.8183 58.8222 39.0564 61.4892 42.9657 62.8045C45.3406 45.2309 37.4489 47.9346 35.6586 45.231C35.0375 42.7831 35.8413 41.9793 34.5991 39.3122C33.1742 40.9928 33.7223 44.0984 34.0511 46.3636C41.212 50.4921 41.5774 48.7384 41.7235 59.3702C33.5761 57.3242 37.047 53.2322 34.6722 48.7384C34.5626 48.8114 32.7358 47.898 34.0145 54.6206Z" fill="#D4B581"/>
<path d="M80.5369 39.0822C84.9909 38.8478 85.4011 37.8515 85.4011 33.1632V12.7689C85.4011 8.19775 84.9909 7.20148 80.1267 6.90845V6.14661H93.4299V6.90845C88.7415 7.20148 88.3313 8.19775 88.3313 12.7689V22.0869C89.3862 21.8525 90.6755 21.2665 91.9648 20.3288C96.0085 17.047 102.748 9.72146 102.748 8.31496C102.748 7.55311 101.869 7.37729 99.1145 6.90845V6.14661H112.3V6.90845C108.55 7.43589 106.616 8.54938 103.92 10.8936C102.279 12.3001 97.0633 16.9884 92.9024 21.1493C97.0633 25.779 104.33 33.2804 106.206 34.9799C109.546 37.9687 110.425 38.7305 113.238 39.0822V39.844H106.557C101.107 34.2766 97.1805 30.4087 91.8476 24.4311C90.9099 23.4934 90.2066 23.0246 89.2104 23.0246C88.9173 23.0246 88.6243 23.0832 88.3313 23.1418V33.2218C88.3899 37.9101 88.7415 38.9064 93.6643 39.1408V39.9026H80.5369V39.0822Z" fill="white"/>
<path d="M131.816 40.4301C131.699 40.4301 130.644 40.0199 130.116 39.4338C129.472 38.7306 129.237 38.086 128.944 36.9139C126.834 38.5548 124.432 40.4301 122.439 40.4301C118.747 40.4301 116.227 37.6171 116.227 34.2767C116.227 31.8739 117.868 30.1158 121.619 29.0023C124.373 28.1818 127.772 26.8926 129.003 26.1307C129.003 23.4935 128.944 18.8052 124.139 18.8052C123.26 18.8638 120.388 19.0982 119.45 23.3763C119.333 23.7279 119.04 24.314 118.278 24.314C117.516 24.314 116.637 23.5521 116.637 22.4972C116.637 21.6768 117.282 21.0321 118.161 20.5633C119.509 19.6256 123.084 17.4573 125.721 16.8712C128.358 16.8712 131.699 18.5707 131.699 23.3177V34.8627C131.699 37.0897 132.519 37.9101 133.633 37.9101C134.57 37.9101 135.391 37.5585 135.977 37.2069L136.446 38.1446L131.816 40.4301ZM128.944 27.5372C127.831 28.1818 124.432 29.4711 123.26 29.94C120.857 30.8776 119.392 31.8739 119.392 33.8664C119.392 36.6794 121.677 38.086 123.611 38.086C125.428 38.086 127.831 36.7381 129.003 35.3316V27.5372H128.944Z" fill="white"/>
<path d="M137.383 39.0822C140.841 38.8478 141.368 38.0859 141.368 34.8041V9.60425C141.368 5.91219 140.958 5.50196 137.5 5.20893V4.56428C140.137 4.21266 143.068 3.275 143.947 2.74756V34.8041C143.947 38.1445 144.416 38.9064 147.99 39.0822V39.844H137.383V39.0822Z" fill="white"/>
<path d="M150.334 39.0822C153.792 38.7891 154.32 38.0859 154.32 34.9799V23.7865C154.32 20.3288 153.968 20.0944 150.862 19.567V18.8637C153.147 18.3949 154.847 17.8088 156.898 16.6954V34.9799C156.898 38.0859 157.426 38.7891 160.942 39.0822V39.844H150.334V39.0822ZM157.66 7.14287C157.66 8.25635 156.722 9.31123 155.609 9.31123C154.554 9.31123 153.558 8.31495 153.558 7.14287C153.558 5.85358 154.554 4.8573 155.609 4.8573C156.898 4.9159 157.66 6.02939 157.66 7.14287Z" fill="white"/>
<path d="M163.345 39.0822C166.627 38.8478 167.095 38.2031 167.095 34.8627V19.2153H163.228L162.993 18.6293L164.458 17.5158H167.095C167.095 15.2303 167.154 12.7689 167.506 11.7726C167.975 10.6591 168.912 7.84612 171.549 5.61916C173.542 3.97824 175.476 3.04058 177.293 2.74756C179.168 2.74756 181.688 4.44708 181.688 5.56056C181.688 6.67404 180.457 7.20148 180.047 7.20148C179.813 7.20148 179.637 7.08427 179.402 6.84986C178.465 5.91219 176.765 5.26754 174.714 5.26754C173.483 5.26754 172.428 5.67777 171.549 6.61543C170.67 7.61171 169.733 10.8935 169.674 15.0544L169.615 17.5158H176.179C176.296 17.8088 176.355 17.9847 176.355 18.2777C176.355 18.6293 176.179 19.0981 175.769 19.274H169.615V34.9213C169.615 38.2617 170.026 38.965 174.538 39.258V39.9027H163.228V39.0822H163.345Z" fill="white"/>
<path d="M193.643 40.4301C193.526 40.4301 192.471 40.0199 191.944 39.4338C191.299 38.7306 191.065 38.086 190.772 36.9139C188.662 38.5548 186.259 40.4301 184.266 40.4301C180.574 40.4301 178.054 37.6171 178.054 34.2767C178.054 31.8739 179.695 30.1158 183.446 29.0023C186.2 28.1818 189.599 26.8926 190.83 26.1307C190.83 23.4935 190.772 18.8052 185.966 18.8052C185.087 18.8638 182.215 19.0982 181.278 23.3763C181.16 23.7279 180.867 24.314 180.106 24.314C179.344 24.314 178.465 23.5521 178.465 22.4972C178.465 21.6768 179.109 21.0321 179.988 20.5633C181.336 19.6256 184.911 17.4573 187.548 16.8712C190.186 16.8712 193.526 18.5707 193.526 23.3177V34.8627C193.526 37.0897 194.346 37.9101 195.46 37.9101C196.398 37.9101 197.218 37.5585 197.804 37.2069L198.273 38.1446L193.643 40.4301ZM190.772 27.5372C189.658 28.1818 186.259 29.4711 185.087 29.94C182.684 30.8776 181.219 31.8739 181.219 33.8664C181.219 36.6794 183.505 38.086 185.439 38.086C187.255 38.086 189.658 36.7381 190.83 35.3316V27.5372H190.772Z" fill="white"/>
<path d="M90.3825 55.5382C89.4448 55.6554 89.4448 55.8898 89.4448 56.593V57.9995C89.4448 58.527 89.4448 58.9958 89.562 59.3474C88.5657 59.5819 87.2178 59.9921 85.9285 59.9921C82.5295 59.9921 80.1267 57.9409 80.1267 54.9521C80.1267 51.5531 82.9983 49.7363 86.1043 49.7363C87.4522 49.7363 88.6243 50.0294 89.1518 50.1466C89.2104 50.6154 89.269 51.4945 89.4448 52.4321L89.2104 52.4907C88.6829 50.4982 87.4522 50.088 85.8699 50.088C82.8811 50.088 81.2988 51.8461 81.2988 54.7177C81.2988 56.886 82.5295 59.5819 85.9871 59.5819C86.8076 59.5819 87.5108 59.4646 87.9797 59.3474C88.4485 59.2302 88.6243 58.9958 88.6243 58.2926V56.8861C88.6243 55.9484 88.5657 55.6554 86.749 55.5382V55.3037H90.3825V55.5382Z" fill="#D4B581" stroke="#D4B581" stroke-width="0.216" stroke-miterlimit="2.6131"/>
<path d="M101.81 59.4646C102.689 59.3474 103.041 59.2302 103.041 58.8786C103.041 58.4684 102.572 57.2377 101.986 55.8312H98.4112C98.2354 56.1242 97.4735 58.234 97.4735 58.7028C97.4735 59.2302 97.8838 59.3474 98.7628 59.4646V59.699H95.2466V59.4646C96.3601 59.2302 96.5359 59.113 97.1219 57.7065L100.521 49.7949L100.697 49.7363L101.752 52.6079C102.455 54.5419 103.158 56.4758 103.744 57.9995C104.213 59.1716 104.33 59.3474 105.444 59.5232V59.7577H101.869V59.4646H101.81ZM100.287 51.1428C99.6419 52.5493 99.0559 54.0144 98.5284 55.3037H101.81L100.287 51.1428Z" fill="#D4B581" stroke="#D4B581" stroke-width="0.216" stroke-miterlimit="2.6131"/>
<path d="M110.308 59.4647C111.714 59.4061 111.832 59.1131 111.832 57.8824V51.6118C111.832 50.3811 111.714 50.2053 110.425 50.0881V49.8536H114.117C115.641 49.8536 117.34 50.3225 117.34 52.315C117.34 53.6629 116.637 54.4248 115.465 54.9522C115.699 55.421 116.344 56.4173 116.872 57.062C117.633 57.9996 118.688 59.3475 119.509 59.5233L119.45 59.6991C118.044 59.6991 117.282 59.6405 114.938 55.7727C114.527 55.1866 114.059 55.1866 112.769 55.1866V57.7652C112.769 58.9959 112.886 59.2889 114.234 59.3475V59.5819H110.425V59.4647H110.308ZM113.648 55.0108C114.527 55.0108 115.113 54.8936 115.524 54.542C116.051 54.1317 116.344 53.4871 116.344 52.608C116.344 50.9671 115.289 50.2053 113.648 50.2053C113.238 50.2053 112.945 50.2053 112.828 50.2639C112.769 50.2639 112.711 50.3225 112.711 50.6155V55.0108H113.648Z" fill="#D4B581" stroke="#D4B581" stroke-width="0.216" stroke-miterlimit="2.6131"/>
<path d="M124.256 59.4646C125.662 59.406 125.779 59.113 125.779 57.8823V51.6702C125.779 50.4395 125.662 50.2051 124.373 50.1465V49.9121H128.885C130.761 49.9121 132.284 50.2051 133.222 51.1428C134.043 51.9047 134.511 53.0181 134.511 54.366C134.511 58.4683 130.937 59.6404 127.83 59.6404H124.256V59.4646ZM126.6 57.8823C126.6 59.0544 126.834 59.3474 128.417 59.3474C132.226 59.3474 133.515 56.886 133.515 54.7763C133.515 53.0181 132.812 51.3772 131.347 50.7326C130.643 50.4395 129.647 50.2637 128.123 50.2637C127.303 50.2637 126.893 50.2637 126.776 50.3223C126.717 50.3223 126.658 50.3223 126.658 50.6153V57.8823H126.6Z" fill="#D4B581" stroke="#D4B581" stroke-width="0.216" stroke-miterlimit="2.6131"/>
<path d="M139.903 59.4647C141.368 59.4061 141.485 59.1131 141.485 57.941V51.8462C141.485 50.4983 141.368 50.2638 140.079 50.2052V49.9708H146.818C146.818 50.4983 146.877 51.4359 146.935 52.3736L146.642 52.4322C146.291 50.8499 145.998 50.381 144.122 50.381H142.716C142.306 50.381 142.306 50.4397 142.306 50.7913V54.4247H144.122C145.353 54.4247 145.646 54.2489 145.88 53.2526H146.173V56.1243H145.88C145.646 54.9522 145.294 54.835 144.122 54.835H142.306V57.8824C142.306 59.3475 142.95 59.3475 144.24 59.3475C145.177 59.3475 146.115 59.3475 146.642 58.7615C146.877 58.4684 147.287 57.941 147.521 57.2377H147.814C147.697 57.8238 147.404 59.2303 147.228 59.7577H139.961V59.4647H139.903Z" fill="#D4B581" stroke="#D4B581" stroke-width="0.216" stroke-miterlimit="2.6131"/>
<path d="M152.796 59.4647C153.734 59.4061 154.144 59.1131 154.261 58.6443C154.378 58.1754 154.437 57.2964 154.437 55.7727V52.3736C154.437 50.9671 154.378 51.0843 154.085 50.7327C153.792 50.4397 153.499 50.2639 152.679 50.1467V49.9122H154.613L161.821 58.1168H161.88V53.6629C161.88 50.6155 161.88 50.2053 160.063 50.0881V49.8536H163.931V50.0881C163.052 50.1467 162.641 50.4397 162.524 50.9085C162.407 51.3773 162.348 52.1978 162.348 53.6629V59.8164H162.173L154.964 51.6118H154.906V55.7727C154.906 57.355 154.964 58.1754 155.023 58.6443C155.14 59.1131 155.609 59.4061 156.664 59.4647V59.6991H152.796V59.4647Z" fill="#D4B581" stroke="#D4B581" stroke-width="0.216" stroke-miterlimit="2.6131"/>
<path d="M174.186 52.1977C173.893 51.3186 173.542 50.088 172.018 50.088C170.905 50.088 170.319 50.7912 170.319 51.8461C170.319 53.1354 171.256 53.6628 172.311 54.1903C173.014 54.5419 174.89 55.1865 174.89 57.1791C174.89 58.82 173.659 59.9921 171.666 59.9921C171.022 59.9335 170.494 59.8749 170.084 59.7577C169.733 59.6404 169.498 59.5232 169.44 59.4646C169.322 59.0544 169.146 57.9409 169.088 57.0033H169.322C169.557 57.8237 170.26 59.5819 172.077 59.5819C173.249 59.5819 174.011 58.9372 174.011 57.5307C174.011 55.9484 172.721 55.421 171.901 54.9521C171.784 54.8935 169.498 54.1317 169.498 52.2563C169.498 50.967 170.553 49.7363 172.37 49.7363C172.897 49.7363 173.307 49.7949 174.186 50.088C174.245 50.6154 174.304 51.2014 174.421 52.2563H174.186V52.1977Z" fill="#D4B581" stroke="#D4B581" stroke-width="0.216" stroke-miterlimit="2.6131"/>
</svg>
