<svg width="20" height="23" viewBox="0 0 20 23" fill="none" xmlns="http://www.w3.org/2000/svg">
<path d="M19.2856 22.9483H6.42852C6.23908 22.9483 6.0574 22.873 5.92344 22.739C5.78949 22.6051 5.71423 22.4234 5.71423 22.234V6.5197C5.71423 6.33026 5.78949 6.14858 5.92344 6.01463C6.0574 5.88067 6.23908 5.80542 6.42852 5.80542H19.2856C19.4751 5.80542 19.6568 5.88067 19.7907 6.01463C19.9247 6.14858 19.9999 6.33026 19.9999 6.5197V22.234C19.9999 22.4234 19.9247 22.6051 19.7907 22.739C19.6568 22.873 19.4751 22.9483 19.2856 22.9483ZM7.1428 21.5197H18.5714V7.23399H7.1428V21.5197Z" fill="#6C9496"/>
<path d="M8.57141 10.0908H17.1428V11.5194H8.57141V10.0908Z" fill="#6C9496"/>
<path d="M8.57141 12.948H17.1428V14.3766H8.57141V12.948Z" fill="#6C9496"/>
<path d="M8.57141 15.8054H17.1428V17.234H8.57141V15.8054Z" fill="#6C9496"/>
<path d="M1.42857 15.8051V1.51939H14.2857V0.805105C14.2857 0.615665 14.2104 0.433984 14.0765 0.300029C13.9425 0.166075 13.7609 0.0908203 13.5714 0.0908203H0.714285C0.524845 0.0908203 0.343164 0.166075 0.209209 0.300029C0.0752549 0.433984 0 0.615665 0 0.805105V16.5194C0 16.7088 0.0752549 16.8905 0.209209 17.0244C0.343164 17.1584 0.524845 17.2337 0.714285 17.2337H1.42857V15.8051Z" fill="#6C9496"/>
<path d="M4.28569 18.6623V4.37657H17.1428V3.66228C17.1428 3.47284 17.0676 3.29116 16.9336 3.15721C16.7997 3.02325 16.618 2.948 16.4285 2.948H3.5714C3.38196 2.948 3.20028 3.02325 3.06633 3.15721C2.93237 3.29116 2.85712 3.47284 2.85712 3.66228V19.3766C2.85712 19.566 2.93237 19.7477 3.06633 19.8816C3.20028 20.0156 3.38196 20.0908 3.5714 20.0908H4.28569V18.6623Z" fill="#6C9496"/>
</svg>
