<svg width="23" height="27" viewBox="0 0 23 27" fill="none" xmlns="http://www.w3.org/2000/svg">
<path d="M22.1787 26.2858H7.39296C7.17511 26.2858 6.96617 26.1993 6.81212 26.0452C6.65808 25.8912 6.57153 25.6822 6.57153 25.4644V7.39296C6.57153 7.17511 6.65808 6.96617 6.81212 6.81212C6.96617 6.65808 7.17511 6.57153 7.39296 6.57153H22.1787C22.3965 6.57153 22.6055 6.65808 22.7595 6.81212C22.9136 6.96617 23.0001 7.17511 23.0001 7.39296V25.4644C23.0001 25.6822 22.9136 25.8912 22.7595 26.0452C22.6055 26.1993 22.3965 26.2858 22.1787 26.2858ZM8.21439 24.643H21.3572V8.21439H8.21439V24.643Z" fill="white"/>
<path d="M9.85718 11.5H19.7143V13.1429H9.85718V11.5Z" fill="white"/>
<path d="M9.85718 14.7856H19.7143V16.4285H9.85718V14.7856Z" fill="white"/>
<path d="M9.85718 18.0715H19.7143V19.7144H9.85718V18.0715Z" fill="white"/>
<path d="M1.64286 18.0714V1.64286H16.4286V0.821429C16.4286 0.603572 16.342 0.394639 16.188 0.240591C16.0339 0.0865431 15.825 0 15.6071 0H0.821429C0.603572 0 0.394639 0.0865431 0.240591 0.240591C0.0865433 0.394639 0 0.603572 0 0.821429V18.8929C0 19.1107 0.0865433 19.3196 0.240591 19.4737C0.394639 19.6277 0.603572 19.7143 0.821429 19.7143H1.64286V18.0714Z" fill="white"/>
<path d="M4.9285 21.3571V4.9285H19.7142V4.10707C19.7142 3.88922 19.6277 3.68028 19.4736 3.52624C19.3196 3.37219 19.1106 3.28564 18.8928 3.28564H4.10707C3.88922 3.28564 3.68028 3.37219 3.52624 3.52624C3.37219 3.68028 3.28564 3.88922 3.28564 4.10707V22.1785C3.28564 22.3964 3.37219 22.6053 3.52624 22.7593C3.68028 22.9134 3.88922 22.9999 4.10707 22.9999H4.9285V21.3571Z" fill="white"/>
</svg>
