<svg width="16" height="15" viewBox="0 0 16 15" fill="none" xmlns="http://www.w3.org/2000/svg">
<path d="M12.75 0C12.9489 0 13.1397 0.0790176 13.2803 0.21967C13.421 0.360322 13.5 0.551088 13.5 0.75V3.56775L12 5.06775V1.5H1.5V13.5H12V11.4315L13.5 9.9315V14.25C13.5 14.4489 13.421 14.6397 13.2803 14.7803C13.1397 14.921 12.9489 15 12.75 15H0.75C0.551088 15 0.360322 14.921 0.21967 14.7803C0.0790176 14.6397 0 14.4489 0 14.25V0.75C0 0.551088 0.0790176 0.360322 0.21967 0.21967C0.360322 0.0790176 0.551088 0 0.75 0H12.75ZM14.0835 5.106L15.144 6.1665L9.3105 12L8.2485 11.9985L8.25 10.9395L14.0835 5.106ZM7.5 7.5V9H3.75V7.5H7.5ZM9.75 4.5V6H3.75V4.5H9.75Z" fill="#828282"/>
</svg>
