<svg width="16" height="17" viewBox="0 0 16 17" fill="none" xmlns="http://www.w3.org/2000/svg">
<path d="M15.36 0.818115H0.64C0.286 0.818115 0 1.10412 0 1.45812V16.1781C0 16.5321 0.286 16.8181 0.64 16.8181H15.36C15.714 16.8181 16 16.5321 16 16.1781V1.45812C16 1.10412 15.714 0.818115 15.36 0.818115ZM5.12 13.4581C5.12 13.5461 5.048 13.6181 4.96 13.6181H3.36C3.272 13.6181 3.2 13.5461 3.2 13.4581V4.17812C3.2 4.09012 3.272 4.01812 3.36 4.01812H4.96C5.048 4.01812 5.12 4.09012 5.12 4.17812V13.4581ZM8.96 7.85812C8.96 7.94612 8.888 8.01812 8.8 8.01812H7.2C7.112 8.01812 7.04 7.94612 7.04 7.85812V4.17812C7.04 4.09012 7.112 4.01812 7.2 4.01812H8.8C8.888 4.01812 8.96 4.09012 8.96 4.17812V7.85812ZM12.8 9.29811C12.8 9.38612 12.728 9.45811 12.64 9.45811H11.04C10.952 9.45811 10.88 9.38612 10.88 9.29811V4.17812C10.88 4.09012 10.952 4.01812 11.04 4.01812H12.64C12.728 4.01812 12.8 4.09012 12.8 4.17812V9.29811Z" fill="#6C9496"/>
</svg>
