<svg width="226" height="246" viewBox="0 0 226 246" fill="none" xmlns="http://www.w3.org/2000/svg">
<rect x="1.5" y="23.5" width="188" height="221" rx="6.5" stroke="#D4B581" stroke-width="3"/>
<rect x="29" width="196.2" height="218" rx="8" fill="white"/>
<path d="M89.734 48.975L89.791 48.671L91.406 47.892L93.61 37.518L92.071 36.739L92.147 36.435H96.536L98.645 45.327L103.509 36.435H107.67L107.594 36.739L105.998 37.499L104.801 47.892L106.017 48.671L105.96 48.975H100.659L100.716 48.671L102.217 47.911L103.243 39.171L97.79 49.07H96.802L94.446 38.924L92.603 47.911L94.009 48.671L93.952 48.975H89.734ZM111.751 49.165C110.966 49.165 110.313 48.994 109.794 48.652C109.275 48.31 108.888 47.854 108.635 47.284C108.382 46.7013 108.255 46.049 108.255 45.327C108.255 44.681 108.369 44.054 108.597 43.446C108.838 42.8253 109.167 42.268 109.585 41.774C110.003 41.2673 110.497 40.8683 111.067 40.577C111.637 40.273 112.251 40.121 112.91 40.121C113.746 40.121 114.43 40.292 114.962 40.634C115.507 40.9633 115.906 41.4193 116.159 42.002C116.425 42.572 116.558 43.2243 116.558 43.959C116.558 44.567 116.444 45.1813 116.216 45.802C115.988 46.41 115.665 46.9673 115.247 47.474C114.829 47.9806 114.322 48.3923 113.727 48.709C113.144 49.013 112.486 49.165 111.751 49.165ZM111.998 48.272C112.403 48.272 112.758 48.0503 113.062 47.607C113.379 47.1636 113.626 46.581 113.803 45.859C113.98 45.1243 114.069 44.339 114.069 43.503C114.069 42.6543 113.974 42.0273 113.784 41.622C113.594 41.204 113.277 40.995 112.834 40.995C112.441 40.995 112.087 41.204 111.77 41.622C111.453 42.04 111.2 42.61 111.01 43.332C110.833 44.0413 110.744 44.833 110.744 45.707C110.744 46.4923 110.833 47.1193 111.01 47.588C111.2 48.044 111.529 48.272 111.998 48.272ZM117.885 48.975L119.158 41.679L117.904 41.033V40.805L121.419 40.121H121.476V41.983H121.59C121.995 41.527 122.35 41.166 122.654 40.9C122.97 40.6213 123.274 40.425 123.566 40.311C123.87 40.1843 124.224 40.121 124.63 40.121C125.288 40.121 125.795 40.3743 126.15 40.881C126.504 41.3876 126.606 42.0716 126.454 42.933L125.808 46.581C125.706 47.1763 125.814 47.474 126.131 47.474C126.321 47.474 126.517 47.3726 126.72 47.17C126.935 46.9546 127.157 46.6 127.385 46.106L127.746 46.22C127.391 47.1573 126.986 47.8856 126.53 48.405C126.074 48.9116 125.542 49.165 124.934 49.165C124.3 49.165 123.844 48.9433 123.566 48.5C123.287 48.0566 123.224 47.417 123.376 46.581L124.003 43.009C124.066 42.667 124.034 42.3693 123.908 42.116C123.794 41.85 123.54 41.717 123.148 41.717C122.831 41.717 122.514 41.8436 122.198 42.097C121.894 42.3376 121.615 42.5973 121.362 42.876L120.336 48.975H117.885ZM130.757 49.165C130.149 49.165 129.68 48.9876 129.351 48.633C129.021 48.2783 128.857 47.759 128.857 47.075C128.857 46.9483 128.863 46.809 128.876 46.657C128.901 46.505 128.92 46.3466 128.933 46.182L129.826 41.147H128.591L128.648 40.881L130.681 39.931L132.41 38.297H132.752L132.41 40.311H134.709V41.147H132.258L131.479 45.574C131.441 45.7893 131.415 45.954 131.403 46.068C131.39 46.182 131.384 46.2833 131.384 46.372C131.384 46.942 131.605 47.227 132.049 47.227C132.34 47.227 132.631 47.094 132.923 46.828C133.227 46.5493 133.505 46.0996 133.759 45.479L134.12 45.612C133.74 46.7646 133.265 47.645 132.695 48.253C132.125 48.861 131.479 49.165 130.757 49.165ZM137.364 48.975H134.913L137.117 36.283L135.749 35.656V35.409L139.796 34.725H139.853L138.599 41.926H138.675C139.08 41.4826 139.429 41.128 139.72 40.862C140.024 40.596 140.322 40.406 140.613 40.292C140.917 40.178 141.265 40.121 141.658 40.121C142.317 40.121 142.817 40.3743 143.159 40.881C143.514 41.3876 143.615 42.0716 143.463 42.933L142.836 46.581C142.735 47.1763 142.842 47.474 143.159 47.474C143.349 47.474 143.545 47.3726 143.748 47.17C143.963 46.9546 144.185 46.6 144.413 46.106L144.755 46.22C144.4 47.1573 143.995 47.8856 143.539 48.405C143.083 48.9116 142.551 49.165 141.943 49.165C141.322 49.165 140.873 48.9433 140.594 48.5C140.315 48.0566 140.252 47.417 140.404 46.581L141.031 43.009C141.082 42.667 141.05 42.3693 140.936 42.116C140.822 41.85 140.569 41.717 140.176 41.717C139.872 41.717 139.568 41.8373 139.264 42.078C138.96 42.306 138.681 42.5593 138.428 42.838L137.364 48.975ZM147.372 49.165C146.739 49.165 146.283 48.9433 146.004 48.5C145.738 48.0566 145.675 47.417 145.814 46.581L147.619 36.283L146.175 35.637V35.409L150.279 34.725H150.336L148.246 46.581C148.145 47.1763 148.253 47.474 148.569 47.474C148.759 47.474 148.956 47.3726 149.158 47.17C149.374 46.9546 149.595 46.6 149.823 46.106L150.184 46.22C149.83 47.1573 149.424 47.8856 148.968 48.405C148.512 48.9116 147.98 49.165 147.372 49.165ZM150.528 53.535C150.173 53.535 149.996 53.3513 149.996 52.984V51.616L150.129 51.502H151.193C151.535 51.502 151.814 51.483 152.029 51.445C152.244 51.4196 152.428 51.35 152.58 51.236C152.732 51.122 152.897 50.9383 153.074 50.685C153.251 50.4443 153.473 50.115 153.739 49.697L154.005 49.279L151.972 41.584L150.661 41.033V40.805L154.062 40.121H154.119L155.734 46.41H155.848L156.874 44.795C157.178 44.3136 157.368 43.9146 157.444 43.598C157.533 43.2813 157.577 43.0216 157.577 42.819C157.577 42.591 157.526 42.401 157.425 42.249C157.324 42.0843 157.184 41.945 157.007 41.831L156.703 41.679V41.584L157.178 40.653C157.305 40.425 157.406 40.2793 157.482 40.216C157.571 40.1526 157.697 40.121 157.862 40.121C158.191 40.121 158.489 40.292 158.755 40.634C159.021 40.976 159.154 41.3496 159.154 41.755C159.154 42.1223 159.046 42.515 158.831 42.933C158.628 43.3383 158.293 43.8956 157.824 44.605L154.005 50.476C153.815 50.7673 153.657 51.008 153.53 51.198C153.416 51.4006 153.289 51.5906 153.15 51.768C153.023 51.958 152.846 52.186 152.618 52.452C151.985 53.174 151.288 53.535 150.528 53.535Z" fill="#0A4D50"/>
<path d="M90.19 179.775L90.247 179.471L91.824 178.711L93.648 168.299L92.337 167.539L92.394 167.235H96.498C97.7647 167.235 98.7717 167.457 99.519 167.9C100.279 168.343 100.659 169.008 100.659 169.895C100.659 170.566 100.406 171.206 99.899 171.814C99.405 172.422 98.6957 172.84 97.771 173.068C98.759 173.233 99.5 173.568 99.994 174.075C100.501 174.569 100.754 175.202 100.754 175.975C100.754 176.583 100.551 177.178 100.146 177.761C99.7407 178.344 99.1327 178.825 98.322 179.205C97.5113 179.585 96.5043 179.775 95.301 179.775H90.19ZM96.441 168.185H95.282L94.465 172.84H95.681C96.7577 172.84 97.562 172.593 98.094 172.099C98.626 171.592 98.892 170.965 98.892 170.218C98.892 169.547 98.702 169.04 98.322 168.698C97.942 168.356 97.315 168.185 96.441 168.185ZM95.966 173.79H94.294L93.42 178.825H95.472C96.65 178.825 97.524 178.565 98.094 178.046C98.6767 177.527 98.968 176.836 98.968 175.975C98.968 175.215 98.7273 174.664 98.246 174.322C97.7647 173.967 97.0047 173.79 95.966 173.79ZM105.618 168.66C105.326 168.66 105.073 168.552 104.858 168.337C104.642 168.122 104.535 167.868 104.535 167.577C104.535 167.286 104.642 167.032 104.858 166.817C105.073 166.602 105.326 166.494 105.618 166.494C105.909 166.494 106.162 166.602 106.378 166.817C106.593 167.032 106.701 167.286 106.701 167.577C106.701 167.868 106.593 168.122 106.378 168.337C106.162 168.552 105.909 168.66 105.618 168.66ZM104.269 179.965C103.825 179.965 103.521 179.794 103.357 179.452C103.192 179.11 103.16 178.654 103.262 178.084L104.269 172.365L102.616 171.719V171.605L105.903 171.035H105.96L104.801 177.514C104.737 177.894 104.725 178.166 104.763 178.331C104.801 178.496 104.908 178.578 105.086 178.578C105.301 178.578 105.535 178.464 105.789 178.236C106.042 177.995 106.283 177.634 106.511 177.153L106.758 177.267C106.39 178.217 105.991 178.907 105.561 179.338C105.143 179.756 104.712 179.965 104.269 179.965ZM108.127 175.424L108.317 174.36H113.257L113.067 175.424H108.127ZM116.594 179.965C116.087 179.965 115.675 179.75 115.359 179.319C115.055 178.876 114.903 178.217 114.903 177.343C114.903 176.558 115.023 175.791 115.264 175.044C115.517 174.297 115.859 173.619 116.29 173.011C116.733 172.403 117.24 171.922 117.81 171.567C118.38 171.212 118.988 171.035 119.634 171.035C119.95 171.035 120.254 171.073 120.546 171.149C120.837 171.225 121.097 171.326 121.325 171.453L121.99 171.035H122.465L121.306 177.514C121.242 177.894 121.23 178.166 121.268 178.331C121.318 178.496 121.426 178.578 121.591 178.578C121.806 178.578 122.04 178.464 122.294 178.236C122.547 177.995 122.788 177.634 123.016 177.153L123.263 177.267C122.895 178.217 122.496 178.907 122.066 179.338C121.648 179.756 121.217 179.965 120.774 179.965C120.33 179.965 120.026 179.794 119.862 179.452C119.697 179.11 119.665 178.654 119.767 178.084L119.862 177.59H119.786C119.304 178.325 118.798 178.907 118.266 179.338C117.734 179.756 117.176 179.965 116.594 179.965ZM116.347 176.602C116.347 177.311 116.423 177.843 116.575 178.198C116.739 178.54 117.043 178.711 117.487 178.711C117.791 178.711 118.095 178.61 118.399 178.407C118.703 178.204 118.994 177.945 119.273 177.628C119.551 177.311 119.798 176.988 120.014 176.659L120.717 172.745C120.476 172.428 120.229 172.188 119.976 172.023C119.735 171.858 119.437 171.776 119.083 171.776C118.538 171.776 118.057 172.01 117.639 172.479C117.233 172.948 116.917 173.549 116.689 174.284C116.461 175.019 116.347 175.791 116.347 176.602ZM124.457 179.775L125.768 172.384L124.286 171.719V171.605L126.984 171.035H127.041V173.03H127.117C127.56 172.536 127.953 172.143 128.295 171.852C128.637 171.561 128.966 171.352 129.283 171.225C129.599 171.098 129.967 171.035 130.385 171.035C131.005 171.035 131.48 171.288 131.81 171.795C132.152 172.302 132.247 172.986 132.095 173.847L131.43 177.514C131.366 177.894 131.354 178.166 131.392 178.331C131.442 178.496 131.55 178.578 131.715 178.578C131.93 178.578 132.164 178.464 132.418 178.236C132.671 177.995 132.912 177.634 133.14 177.153L133.387 177.267C133.019 178.217 132.62 178.907 132.19 179.338C131.772 179.756 131.341 179.965 130.898 179.965C130.454 179.965 130.15 179.794 129.986 179.452C129.821 179.11 129.789 178.654 129.891 178.084L130.632 173.904C130.695 173.461 130.638 173.068 130.461 172.726C130.296 172.371 129.935 172.194 129.378 172.194C129.099 172.194 128.808 172.289 128.504 172.479C128.212 172.669 127.927 172.897 127.649 173.163C127.37 173.416 127.123 173.663 126.908 173.904L125.901 179.775H124.457ZM134.532 179.775L135.843 172.384L134.361 171.719V171.605L137.059 171.035H137.116V173.03H137.192C137.635 172.536 138.028 172.143 138.37 171.852C138.712 171.561 139.041 171.352 139.358 171.225C139.675 171.098 140.042 171.035 140.46 171.035C141.081 171.035 141.556 171.288 141.885 171.795C142.227 172.302 142.322 172.986 142.17 173.847L141.505 177.514C141.442 177.894 141.429 178.166 141.467 178.331C141.518 178.496 141.625 178.578 141.79 178.578C142.005 178.578 142.24 178.464 142.493 178.236C142.746 177.995 142.987 177.634 143.215 177.153L143.462 177.267C143.095 178.217 142.696 178.907 142.265 179.338C141.847 179.756 141.416 179.965 140.973 179.965C140.53 179.965 140.226 179.794 140.061 179.452C139.896 179.11 139.865 178.654 139.966 178.084L140.707 173.904C140.77 173.461 140.713 173.068 140.536 172.726C140.371 172.371 140.01 172.194 139.453 172.194C139.174 172.194 138.883 172.289 138.579 172.479C138.288 172.669 138.003 172.897 137.724 173.163C137.445 173.416 137.198 173.663 136.983 173.904L135.976 179.775H134.532ZM146.625 179.965C146.157 179.965 145.77 179.781 145.466 179.414C145.175 179.047 145.029 178.546 145.029 177.913C145.029 177.786 145.036 177.66 145.048 177.533C145.074 177.406 145.093 177.28 145.105 177.153L145.96 172.384L144.478 171.719V171.605L147.518 171.035H147.594L146.606 176.849C146.556 177.166 146.53 177.394 146.53 177.533C146.53 177.888 146.613 178.192 146.777 178.445C146.955 178.686 147.24 178.806 147.632 178.806C147.898 178.806 148.164 178.711 148.43 178.521C148.709 178.331 148.975 178.103 149.228 177.837C149.482 177.571 149.71 177.324 149.912 177.096L150.729 172.384L149.418 171.719V171.605L152.306 171.035H152.382L151.242 177.514C151.179 177.894 151.166 178.166 151.204 178.331C151.255 178.496 151.375 178.578 151.565 178.578C151.781 178.578 152.015 178.464 152.268 178.236C152.522 177.995 152.762 177.634 152.99 177.153L153.237 177.267C152.87 178.217 152.471 178.907 152.04 179.338C151.622 179.756 151.192 179.965 150.748 179.965C150.305 179.965 150.001 179.794 149.836 179.452C149.684 179.11 149.653 178.654 149.741 178.084L149.76 177.97H149.703C149.273 178.451 148.899 178.838 148.582 179.129C148.266 179.42 147.955 179.636 147.651 179.775C147.36 179.902 147.018 179.965 146.625 179.965ZM156.115 179.965C155.609 179.965 155.197 179.75 154.88 179.319C154.576 178.876 154.424 178.217 154.424 177.343C154.424 176.558 154.545 175.791 154.785 175.044C155.039 174.297 155.381 173.619 155.811 173.011C156.255 172.403 156.761 171.922 157.331 171.567C157.901 171.212 158.509 171.035 159.155 171.035C159.472 171.035 159.776 171.073 160.067 171.149C160.359 171.225 160.618 171.326 160.846 171.453L161.511 171.035H161.986L160.827 177.514C160.764 177.894 160.751 178.166 160.789 178.331C160.84 178.496 160.948 178.578 161.112 178.578C161.328 178.578 161.562 178.464 161.815 178.236C162.069 177.995 162.309 177.634 162.537 177.153L162.784 177.267C162.417 178.217 162.018 178.907 161.587 179.338C161.169 179.756 160.739 179.965 160.295 179.965C159.852 179.965 159.548 179.794 159.383 179.452C159.219 179.11 159.187 178.654 159.288 178.084L159.383 177.59H159.307C158.826 178.325 158.319 178.907 157.787 179.338C157.255 179.756 156.698 179.965 156.115 179.965ZM155.868 176.602C155.868 177.311 155.944 177.843 156.096 178.198C156.261 178.54 156.565 178.711 157.008 178.711C157.312 178.711 157.616 178.61 157.92 178.407C158.224 178.204 158.516 177.945 158.794 177.628C159.073 177.311 159.32 176.988 159.535 176.659L160.238 172.745C159.998 172.428 159.751 172.188 159.497 172.023C159.257 171.858 158.959 171.776 158.604 171.776C158.06 171.776 157.578 172.01 157.16 172.479C156.755 172.948 156.438 173.549 156.21 174.284C155.982 175.019 155.868 175.791 155.868 176.602ZM165.08 179.965C164.637 179.965 164.333 179.794 164.168 179.452C164.003 179.11 163.972 178.654 164.073 178.084L166.03 166.855L164.377 166.209V166.095L167.664 165.525H167.721L165.612 177.514C165.549 177.894 165.536 178.166 165.574 178.331C165.612 178.496 165.72 178.578 165.897 178.578C166.112 178.578 166.347 178.464 166.6 178.236C166.853 177.995 167.094 177.634 167.322 177.153L167.569 177.267C167.202 178.217 166.803 178.907 166.372 179.338C165.954 179.756 165.523 179.965 165.08 179.965ZM169.979 179.965C169.535 179.965 169.231 179.794 169.067 179.452C168.902 179.11 168.87 178.654 168.972 178.084L170.929 166.855L169.276 166.209V166.095L172.563 165.525H172.62L170.511 177.514C170.447 177.894 170.435 178.166 170.473 178.331C170.511 178.496 170.618 178.578 170.796 178.578C171.011 178.578 171.245 178.464 171.499 178.236C171.752 177.995 171.993 177.634 172.221 177.153L172.468 177.267C172.1 178.217 171.701 178.907 171.271 179.338C170.853 179.756 170.422 179.965 169.979 179.965ZM172.863 184.335C172.508 184.335 172.331 184.151 172.331 183.784V182.872L172.464 182.758H173.376C173.693 182.758 173.94 182.745 174.117 182.72C174.307 182.695 174.465 182.631 174.592 182.53C174.731 182.429 174.877 182.264 175.029 182.036C175.194 181.821 175.396 181.51 175.637 181.105L176.53 179.661L174.896 172.327L173.281 171.719V171.605L176.093 171.035H176.15L177.594 177.78H177.67L179.038 175.538C179.456 174.854 179.728 174.335 179.855 173.98C179.982 173.613 180.045 173.309 180.045 173.068C180.045 172.865 179.994 172.707 179.893 172.593C179.792 172.466 179.665 172.359 179.513 172.27L179.266 172.118V172.042L179.57 171.472C179.671 171.295 179.754 171.181 179.817 171.13C179.893 171.067 180.001 171.035 180.14 171.035C180.355 171.035 180.545 171.117 180.71 171.282C180.887 171.434 181.02 171.63 181.109 171.871C181.21 172.099 181.261 172.321 181.261 172.536C181.261 172.84 181.147 173.214 180.919 173.657C180.704 174.088 180.362 174.683 179.893 175.443L176.226 181.276C176.049 181.567 175.903 181.808 175.789 181.998C175.675 182.188 175.555 182.378 175.428 182.568C175.314 182.758 175.143 182.986 174.915 183.252C174.598 183.619 174.256 183.892 173.889 184.069C173.522 184.246 173.18 184.335 172.863 184.335Z" fill="#0A4D50"/>
<path d="M96.308 114.565C95.2693 114.565 94.3637 114.331 93.591 113.862C92.8183 113.393 92.2167 112.741 91.786 111.905C91.3553 111.069 91.14 110.106 91.14 109.017C91.14 108.067 91.3173 107.149 91.672 106.262C92.0267 105.375 92.5207 104.584 93.154 103.887C93.8 103.19 94.5537 102.639 95.415 102.234C96.2763 101.829 97.2137 101.626 98.227 101.626C99.2783 101.626 100.19 101.86 100.963 102.329C101.736 102.798 102.337 103.456 102.768 104.305C103.199 105.141 103.414 106.104 103.414 107.193C103.414 108.194 103.211 109.169 102.806 110.119C102.401 111.056 101.831 111.886 101.096 112.608C100.374 113.33 99.519 113.856 98.531 114.185C99.2657 114.831 99.8737 115.319 100.355 115.648C100.849 115.99 101.292 116.224 101.685 116.351C102.078 116.478 102.496 116.541 102.939 116.541C103.294 116.541 103.591 116.49 103.832 116.389L103.775 116.693C103.484 116.832 103.129 116.953 102.711 117.054C102.306 117.155 101.881 117.206 101.438 117.206C100.969 117.206 100.494 117.143 100.013 117.016C99.5317 116.889 98.9997 116.636 98.417 116.256C97.8343 115.876 97.163 115.312 96.403 114.565H96.308ZM96.916 113.653C97.6253 113.653 98.2713 113.488 98.854 113.159C99.4367 112.83 99.937 112.374 100.355 111.791C100.786 111.196 101.115 110.524 101.343 109.777C101.584 109.017 101.704 108.206 101.704 107.345C101.704 106.382 101.533 105.54 101.191 104.818C100.862 104.096 100.393 103.532 99.785 103.127C99.1897 102.709 98.4993 102.5 97.714 102.5C96.7767 102.5 95.9407 102.785 95.206 103.355C94.4713 103.912 93.895 104.672 93.477 105.635C93.0717 106.585 92.869 107.649 92.869 108.827C92.869 109.777 93.04 110.619 93.382 111.354C93.724 112.076 94.1927 112.64 94.788 113.045C95.396 113.45 96.1053 113.653 96.916 113.653ZM107.568 114.565C107.099 114.565 106.713 114.381 106.409 114.014C106.118 113.647 105.972 113.146 105.972 112.513C105.972 112.386 105.978 112.26 105.991 112.133C106.016 112.006 106.035 111.88 106.048 111.753L106.903 106.984L105.421 106.319V106.205L108.461 105.635H108.537L107.549 111.449C107.498 111.766 107.473 111.994 107.473 112.133C107.473 112.488 107.555 112.792 107.72 113.045C107.897 113.286 108.182 113.406 108.575 113.406C108.841 113.406 109.107 113.311 109.373 113.121C109.652 112.931 109.918 112.703 110.171 112.437C110.424 112.171 110.652 111.924 110.855 111.696L111.672 106.984L110.361 106.319V106.205L113.249 105.635H113.325L112.185 112.114C112.122 112.494 112.109 112.766 112.147 112.931C112.198 113.096 112.318 113.178 112.508 113.178C112.723 113.178 112.958 113.064 113.211 112.836C113.464 112.595 113.705 112.234 113.933 111.753L114.18 111.867C113.813 112.817 113.414 113.507 112.983 113.938C112.565 114.356 112.134 114.565 111.691 114.565C111.248 114.565 110.944 114.394 110.779 114.052C110.627 113.71 110.595 113.254 110.684 112.684L110.703 112.57H110.646C110.215 113.051 109.842 113.438 109.525 113.729C109.208 114.02 108.898 114.236 108.594 114.375C108.303 114.502 107.961 114.565 107.568 114.565ZM117.058 114.565C116.551 114.565 116.139 114.35 115.823 113.919C115.519 113.476 115.367 112.817 115.367 111.943C115.367 111.158 115.487 110.391 115.728 109.644C115.981 108.897 116.323 108.219 116.754 107.611C117.197 107.003 117.704 106.522 118.274 106.167C118.844 105.812 119.452 105.635 120.098 105.635C120.414 105.635 120.718 105.673 121.01 105.749C121.301 105.825 121.561 105.926 121.789 106.053L122.454 105.635H122.929L121.77 112.114C121.706 112.494 121.694 112.766 121.732 112.931C121.782 113.096 121.89 113.178 122.055 113.178C122.27 113.178 122.504 113.064 122.758 112.836C123.011 112.595 123.252 112.234 123.48 111.753L123.727 111.867C123.359 112.817 122.96 113.507 122.53 113.938C122.112 114.356 121.681 114.565 121.238 114.565C120.794 114.565 120.49 114.394 120.326 114.052C120.161 113.71 120.129 113.254 120.231 112.684L120.326 112.19H120.25C119.768 112.925 119.262 113.507 118.73 113.938C118.198 114.356 117.64 114.565 117.058 114.565ZM116.811 111.202C116.811 111.911 116.887 112.443 117.039 112.798C117.203 113.14 117.507 113.311 117.951 113.311C118.255 113.311 118.559 113.21 118.863 113.007C119.167 112.804 119.458 112.545 119.737 112.228C120.015 111.911 120.262 111.588 120.478 111.259L121.181 107.345C120.94 107.028 120.693 106.788 120.44 106.623C120.199 106.458 119.901 106.376 119.547 106.376C119.002 106.376 118.521 106.61 118.103 107.079C117.697 107.548 117.381 108.149 117.153 108.884C116.925 109.619 116.811 110.391 116.811 111.202ZM124.921 114.375L126.232 106.984L124.75 106.319V106.205L127.429 105.635H127.486V107.972H127.562C127.967 107.225 128.309 106.693 128.588 106.376C128.879 106.047 129.132 105.844 129.348 105.768C129.576 105.679 129.778 105.635 129.956 105.635C130.184 105.635 130.393 105.711 130.583 105.863C130.773 106.002 130.868 106.167 130.868 106.357C130.868 106.42 130.849 106.49 130.811 106.566L130.336 107.535H130.222L130.013 107.383C129.911 107.307 129.797 107.256 129.671 107.231C129.557 107.193 129.443 107.174 129.329 107.174C129.101 107.174 128.892 107.225 128.702 107.326C128.524 107.415 128.322 107.611 128.094 107.915C127.878 108.206 127.6 108.65 127.258 109.245L126.365 114.375H124.921ZM133.142 114.565C132.724 114.565 132.408 114.432 132.192 114.166C131.977 113.9 131.869 113.526 131.869 113.045C131.869 112.944 131.876 112.83 131.888 112.703C131.901 112.576 131.92 112.45 131.945 112.323L132.952 106.661H131.546V106.547L133.161 105.825L134.795 103.735H134.909L134.548 105.825H136.923V106.661H134.396L133.541 111.487C133.516 111.652 133.497 111.804 133.484 111.943C133.472 112.07 133.465 112.184 133.465 112.285C133.465 112.589 133.516 112.804 133.617 112.931C133.719 113.058 133.852 113.121 134.016 113.121C134.308 113.121 134.618 112.956 134.947 112.627C135.289 112.298 135.6 111.823 135.878 111.202L136.125 111.316C135.707 112.519 135.239 113.362 134.719 113.843C134.213 114.324 133.687 114.565 133.142 114.565ZM140.409 114.565C139.434 114.565 138.718 114.299 138.262 113.767C137.806 113.222 137.578 112.488 137.578 111.563C137.578 110.816 137.698 110.094 137.939 109.397C138.192 108.688 138.534 108.054 138.965 107.497C139.408 106.927 139.915 106.477 140.485 106.148C141.068 105.806 141.695 105.635 142.366 105.635C142.999 105.635 143.474 105.781 143.791 106.072C144.12 106.363 144.285 106.705 144.285 107.098C144.285 107.529 144.133 107.928 143.829 108.295C143.525 108.65 142.993 108.979 142.233 109.283C141.486 109.574 140.428 109.834 139.06 110.062C139.035 110.315 139.022 110.581 139.022 110.86C139.022 111.633 139.187 112.247 139.516 112.703C139.845 113.159 140.365 113.387 141.074 113.387C141.492 113.387 141.904 113.273 142.309 113.045C142.714 112.817 143.132 112.443 143.563 111.924H143.601L143.791 112.076C143.36 112.823 142.841 113.425 142.233 113.881C141.638 114.337 141.03 114.565 140.409 114.565ZM141.853 106.3C141.169 106.3 140.586 106.585 140.105 107.155C139.636 107.712 139.32 108.453 139.155 109.378C140.105 109.213 140.846 109.036 141.378 108.846C141.91 108.656 142.284 108.434 142.499 108.181C142.714 107.915 142.822 107.586 142.822 107.193C142.822 106.94 142.74 106.731 142.575 106.566C142.41 106.389 142.17 106.3 141.853 106.3ZM145.869 114.375L147.18 106.984L145.698 106.319V106.205L148.377 105.635H148.434V107.972H148.51C148.915 107.225 149.257 106.693 149.536 106.376C149.827 106.047 150.08 105.844 150.296 105.768C150.524 105.679 150.726 105.635 150.904 105.635C151.132 105.635 151.341 105.711 151.531 105.863C151.721 106.002 151.816 106.167 151.816 106.357C151.816 106.42 151.797 106.49 151.759 106.566L151.284 107.535H151.17L150.961 107.383C150.859 107.307 150.745 107.256 150.619 107.231C150.505 107.193 150.391 107.174 150.277 107.174C150.049 107.174 149.84 107.225 149.65 107.326C149.472 107.415 149.27 107.611 149.042 107.915C148.826 108.206 148.548 108.65 148.206 109.245L147.313 114.375H145.869ZM153.521 114.565C153.077 114.565 152.773 114.394 152.609 114.052C152.444 113.71 152.412 113.254 152.514 112.684L154.471 101.455L152.818 100.809V100.695L156.105 100.125H156.162L154.053 112.114C153.989 112.494 153.977 112.766 154.015 112.931C154.053 113.096 154.16 113.178 154.338 113.178C154.553 113.178 154.787 113.064 155.041 112.836C155.294 112.595 155.535 112.234 155.763 111.753L156.01 111.867C155.642 112.817 155.243 113.507 154.813 113.938C154.395 114.356 153.964 114.565 153.521 114.565ZM156.405 118.935C156.05 118.935 155.873 118.751 155.873 118.384V117.472L156.006 117.358H156.918C157.235 117.358 157.482 117.345 157.659 117.32C157.849 117.295 158.007 117.231 158.134 117.13C158.273 117.029 158.419 116.864 158.571 116.636C158.736 116.421 158.938 116.11 159.179 115.705L160.072 114.261L158.438 106.927L156.823 106.319V106.205L159.635 105.635H159.692L161.136 112.38H161.212L162.58 110.138C162.998 109.454 163.27 108.935 163.397 108.58C163.524 108.213 163.587 107.909 163.587 107.668C163.587 107.465 163.536 107.307 163.435 107.193C163.334 107.066 163.207 106.959 163.055 106.87L162.808 106.718V106.642L163.112 106.072C163.213 105.895 163.296 105.781 163.359 105.73C163.435 105.667 163.543 105.635 163.682 105.635C163.897 105.635 164.087 105.717 164.252 105.882C164.429 106.034 164.562 106.23 164.651 106.471C164.752 106.699 164.803 106.921 164.803 107.136C164.803 107.44 164.689 107.814 164.461 108.257C164.246 108.688 163.904 109.283 163.435 110.043L159.768 115.876C159.591 116.167 159.445 116.408 159.331 116.598C159.217 116.788 159.097 116.978 158.97 117.168C158.856 117.358 158.685 117.586 158.457 117.852C158.14 118.219 157.798 118.492 157.431 118.669C157.064 118.846 156.722 118.935 156.405 118.935Z" fill="#0A4D50"/>
<circle cx="58.5688" cy="107.319" r="14.3062" fill="#E0E0E0"/>
<circle cx="58.5688" cy="172.719" r="14.3062" fill="#E0E0E0"/>
<circle cx="58.5688" cy="41.9188" r="14.3062" fill="#D4B581"/>
<path d="M51 42.1698L55.7663 46.9361L66.0158 36.8459" stroke="#0A4D50" stroke-width="2"/>
</svg>
