<svg width="261" height="261" viewBox="0 0 261 261" fill="none" xmlns="http://www.w3.org/2000/svg">
<circle cx="130.5" cy="130.5" r="119.5" stroke="#D4B581" stroke-opacity="0.7" stroke-width="2"/>
<circle cx="130.5" cy="130.5" r="130" stroke="#D4B581" stroke-opacity="0.5"/>
<circle cx="130.5" cy="130.5" r="104" stroke="#D4B581" stroke-width="3"/>
<circle cx="130.5" cy="130.5" r="84.5" stroke="#D4B581" stroke-width="8"/>
<path d="M139.4 138.4V151H105.8V121.6C105.8 112.318 113.318 104.8 122.6 104.8C126.17 104.8 129.488 105.892 132.176 107.824L138.182 101.818C135.447 99.6525 132.283 98.0921 128.9 97.24V94.3C128.9 90.814 126.086 88 122.6 88C119.114 88 116.3 90.814 116.3 94.3V97.24C105.422 100.012 97.4 109.882 97.4 121.6V151H89V159.4H156.2V151H147.8V138.4H139.4ZM122.6 172C127.22 172 131 168.22 131 163.6H114.2C114.2 168.22 117.98 172 122.6 172ZM173 113.2H160.4V100.6H152V113.2H139.4V121.6H152V134.2H160.4V121.6H173V113.2Z" fill="white"/>
</svg>
