<svg width="166" height="244" viewBox="0 0 166 244" fill="none" xmlns="http://www.w3.org/2000/svg">
<path fill-rule="evenodd" clip-rule="evenodd" d="M82.9825 62.1953H91.0607V69.4156H82.9825V62.1953ZM73.7604 62.1953H81.8387V69.4156H73.7604V62.1953ZM82.9825 53.5451H91.0607V60.7655H82.9825V53.5451ZM73.7604 53.5451H81.9101V60.7655H73.7604V53.5451ZM97.6377 66.5561C106.788 75.4922 108.861 73.2045 117.512 68.2718C124.446 64.3399 135.026 68.7007 138.601 74.4198C115.796 84.6427 122.873 71.7748 113.437 75.4207L116.582 78.3517C120.443 81.2113 125.304 82.8555 130.38 82.2836C135.312 81.7117 143.248 77.4224 145.607 74.1339C117.512 53.2592 114.366 69.7731 108.147 69.7016C104 67.9144 101.427 64.4114 97.6377 66.5561ZM87.5578 28.1666C89.9884 13.8688 87.2003 12.5105 100.14 6.79144C103.285 24.4492 96.6368 26.8798 85.4846 32.17C85.0556 37.1027 83.9833 42.9648 86.6284 46.1103C88.5586 42.6073 88.0582 39.9622 88.3441 35.101C98.853 27.0943 105.93 30.5257 103.142 0.0714888C94.8496 2.50211 86.6284 8.14972 85.2701 17.4433C83.9833 26.8083 85.7705 26.3794 87.5578 28.1666ZM113.437 47.683C121.515 50.4711 119.728 38.2465 138.386 48.8269C123.159 65.4123 114.866 49.3273 107.36 50.5426C106.288 50.757 103.5 52.0438 102.141 52.9017L97.9236 56.4762C104.429 58.9783 104.072 52.9732 109.076 53.5451C112.436 53.974 115.295 58.5493 120.8 59.3357C129.522 60.551 140.174 52.0438 145.821 49.1128C140.102 40.5341 126.519 36.5308 114.581 46.3247C114.438 46.4677 114.08 47.1826 114.009 46.9681C113.866 46.8252 113.58 47.4686 113.437 47.683ZM108.432 96.5814C100.497 87.2878 115.081 79.4241 94.2062 71.9892C95.35 77.9943 97.9951 75.6352 102.642 80.4964C102.713 90.7193 101.927 96.7244 108.861 101.228C113.008 103.945 120.872 108.591 125.804 110.021C126.376 92.864 123.803 85.9295 109.862 80.9968C110.649 90.2189 123.231 82.6411 121.086 104.231C117.583 102.944 110.434 98.9405 108.432 96.5814ZM26.3633 48.6839C45.5223 38.5325 42.8058 50.4711 51.4559 47.683C50.6695 46.7537 51.17 47.0396 49.6687 45.8243C45.7368 42.6073 39.4458 39.9622 34.3701 40.6056C29.2229 41.249 21.5021 45.8958 19 49.0413C22.7889 51.186 31.1531 56.7621 35.7284 58.4778C45.0934 61.9808 49.9546 55.6898 56.6031 53.2592C57.5325 53.3306 61.6073 56.7621 64.4669 57.0481C66.3971 57.2625 66.1111 56.7621 66.969 56.4762C66.1826 55.6898 66.1111 55.4753 64.8958 54.4745L57.461 50.5426C52.1708 49.6847 39.0169 64.7689 26.3633 48.6839ZM79.4795 32.0985C67.8268 27.2372 62.1077 23.6628 64.7528 6.79144C82.4821 14.3692 72.6166 16.5854 78.0497 27.5232C80.5519 24.8781 79.2651 32.5274 79.9799 22.5905C80.0514 21.5896 79.694 17.2288 79.4795 16.1565C78.9076 12.725 77.4063 10.4374 75.6191 8.57866C72.9025 5.86208 65.8966 1.2868 61.6073 0C58.9622 37.8891 72.4736 27.6662 76.477 35.101C77.1204 40.6771 75.9051 42.0354 78.1212 46.1103C81.0523 42.8218 79.9799 40.2482 79.4795 32.0985ZM26.2919 74.3484C28.2935 71.4173 24.7906 74.6343 28.794 71.4888C49.6687 55.1179 47.5955 83.4274 67.2549 66.5561C63.6805 64.2684 60.8209 67.6999 56.6031 69.5586C51.3129 69.8446 44.8789 53.4736 19.3574 74.1339C21.4306 77.2794 30.2237 82.0691 35.3709 82.4266C41.9479 82.8555 48.2389 78.5662 51.3844 75.3492C44.1641 72.5611 45.8798 83.9279 26.2919 74.3484ZM54.9589 42.1069C53.8865 32.8848 42.1624 40.9631 43.6636 18.7301C48.1674 20.0884 53.6721 23.3768 56.3886 26.5223C65.1103 36.8167 48.5249 40.9631 70.4719 50.9715C69.9715 45.1809 66.826 47.0396 62.3222 42.6073C62.1077 32.3129 63.466 27.5947 55.8882 22.0186C52.8857 19.8024 43.6636 14.2263 39.2313 13.2254C39.0884 25.9504 36.5862 34.6721 54.9589 42.1069ZM64.2524 116.169C64.4669 97.2963 65.3962 97.5822 79.408 90.8623C80.3374 83.9279 81.2667 80.0675 77.5493 76.8505L76.477 88.0742C72.1877 96.2954 59.8916 82.927 61.7503 123.104C66.0396 121.745 73.9749 117.027 76.334 114.096C79.0506 110.808 82.1246 99.9413 78.0497 95.5805C75.5476 101.014 79.694 111.737 64.2524 116.169ZM62.1792 80.4249C66.6115 75.9926 69.6141 77.7083 70.4719 71.4888L59.0337 79.1381C58.5333 88.9321 62.5367 97.7967 43.8066 104.231C41.519 82.6411 54.101 89.7899 54.9589 80.9253C38.8024 88.1457 38.302 94.1507 39.5173 110.021C62.4652 99.2265 62.1792 98.0111 62.1792 80.4249ZM105.787 43.8941C106.86 34.1716 102.141 25.2355 121.157 18.8016C123.874 40.6056 110.148 32.5274 110.005 42.0354C123.874 36.8167 126.09 30.4542 125.733 13.1539C121.157 14.2263 111.649 20.0169 108.432 22.5905C101.57 28.0951 104.501 33.9572 102.356 42.7503L97.7807 45.9673C94.2062 48.5409 95.636 46.9681 93.9203 51.043C99.9253 48.8269 101.927 47.8975 105.787 43.8941ZM85.5561 106.876C87.1288 115.097 95.4215 120.316 103.071 122.889C107.718 88.5031 92.276 93.7933 88.7731 88.5031C87.5578 83.7134 89.1305 82.1406 86.6999 76.922C83.9118 80.2104 84.9842 86.287 85.6276 90.7193C99.6394 98.7975 100.354 95.3661 100.64 116.169C84.6982 112.166 91.4896 104.159 86.8429 95.3661C86.6284 95.509 83.054 93.7218 85.5561 106.876Z" fill="#D4B581"/>
<path d="M0.573053 202.86C6.7948 202.533 7.36785 201.141 7.36785 194.592V166.103C7.36785 159.717 6.7948 158.325 0 157.916V156.852H18.5834V157.916C12.0342 158.325 11.4611 159.717 11.4611 166.103V179.119C12.9347 178.792 14.7357 177.973 16.5367 176.663C22.1854 172.079 31.5999 161.846 31.5999 159.881C31.5999 158.817 30.3719 158.571 26.5243 157.916V156.852H44.9439V157.916C39.7045 158.653 37.003 160.208 33.2372 163.483C30.945 165.448 23.659 171.997 17.8466 177.809C23.659 184.277 33.8103 194.755 36.4299 197.129C41.0962 201.305 42.3242 202.369 46.2537 202.86V203.924H36.9211C29.3077 196.147 23.8227 190.744 16.373 182.394C15.0632 181.084 14.0808 180.429 12.6891 180.429C12.2798 180.429 11.8704 180.511 11.4611 180.593V194.674C11.543 201.223 12.0342 202.614 18.9108 202.942V204.006H0.573053V202.86Z" fill="white"/>
<path d="M72.205 204.743C72.0412 204.743 70.5677 204.17 69.8309 203.351C68.9304 202.369 68.6029 201.468 68.1936 199.831C65.2464 202.123 61.89 204.743 59.1066 204.743C53.9491 204.743 50.4289 200.813 50.4289 196.147C50.4289 192.791 52.7211 190.335 57.9604 188.779C61.8081 187.633 66.5563 185.832 68.2754 184.768C68.2754 181.084 68.1936 174.535 61.4806 174.535C60.2527 174.617 56.2413 174.944 54.9314 180.92C54.7677 181.411 54.3584 182.23 53.2941 182.23C52.2299 182.23 51.0019 181.166 51.0019 179.692C51.0019 178.546 51.9024 177.646 53.1304 176.991C55.0133 175.681 60.0071 172.652 63.691 171.833C67.3749 171.833 72.0412 174.207 72.0412 180.838V196.966C72.0412 200.077 73.1873 201.223 74.7428 201.223C76.0526 201.223 77.1987 200.732 78.0174 200.24L78.6723 201.55L72.205 204.743ZM68.1936 186.733C66.6381 187.633 61.89 189.434 60.2527 190.089C56.8962 191.399 54.8496 192.791 54.8496 195.574C54.8496 199.504 58.0423 201.468 60.7439 201.468C63.2817 201.468 66.6381 199.585 68.2754 197.621V186.733H68.1936Z" fill="white"/>
<path d="M79.9821 202.86C84.8122 202.533 85.549 201.468 85.549 196.884V161.682C85.549 156.524 84.9759 155.951 80.1459 155.542V154.642C83.8298 154.15 87.923 152.84 89.151 152.104V196.884C89.151 201.55 89.8059 202.614 94.7997 202.86V203.924H79.9821V202.86Z" fill="white"/>
<path d="M98.0743 202.86C102.904 202.451 103.641 201.468 103.641 197.129V181.493C103.641 176.663 103.15 176.336 98.8111 175.599V174.617C102.004 173.962 104.378 173.143 107.243 171.588V197.129C107.243 201.468 107.98 202.451 112.892 202.86V203.924H98.0743V202.86ZM108.307 158.244C108.307 159.799 106.998 161.273 105.442 161.273C103.969 161.273 102.577 159.881 102.577 158.244C102.577 156.443 103.969 155.051 105.442 155.051C107.243 155.133 108.307 156.688 108.307 158.244Z" fill="white"/>
<path d="M116.248 202.86C120.833 202.533 121.488 201.632 121.488 196.966V175.108H116.085L115.757 174.289L117.804 172.734H121.488C121.488 169.541 121.57 166.103 122.061 164.711C122.716 163.156 124.026 159.226 127.709 156.115C130.493 153.823 133.194 152.513 135.732 152.104C138.352 152.104 141.872 154.478 141.872 156.033C141.872 157.589 140.153 158.325 139.58 158.325C139.252 158.325 139.007 158.162 138.679 157.834C137.37 156.524 134.995 155.624 132.13 155.624C130.411 155.624 128.937 156.197 127.709 157.507C126.481 158.899 125.172 163.483 125.09 169.295L125.008 172.734H134.177C134.341 173.143 134.422 173.389 134.422 173.798C134.422 174.289 134.177 174.944 133.604 175.19H125.008V197.048C125.008 201.714 125.581 202.696 131.885 203.106V204.006H116.085V202.86H116.248Z" fill="white"/>
<path d="M158.573 204.743C158.409 204.743 156.935 204.17 156.198 203.351C155.298 202.369 154.97 201.468 154.561 199.831C151.614 202.123 148.258 204.743 145.474 204.743C140.317 204.743 136.796 200.813 136.796 196.147C136.796 192.791 139.089 190.335 144.328 188.779C148.176 187.633 152.924 185.832 154.643 184.768C154.643 181.084 154.561 174.535 147.848 174.535C146.62 174.617 142.609 174.944 141.299 180.92C141.135 181.411 140.726 182.23 139.662 182.23C138.597 182.23 137.37 181.166 137.37 179.692C137.37 178.546 138.27 177.646 139.498 176.991C141.381 175.681 146.375 172.652 150.059 171.833C153.743 171.833 158.409 174.207 158.409 180.838V196.966C158.409 200.077 159.555 201.223 161.11 201.223C162.42 201.223 163.566 200.732 164.385 200.24L165.04 201.55L158.573 204.743ZM154.561 186.733C153.006 187.633 148.258 189.434 146.62 190.089C143.264 191.399 141.217 192.791 141.217 195.574C141.217 199.504 144.41 201.468 147.111 201.468C149.649 201.468 153.006 199.585 154.643 197.621V186.733H154.561Z" fill="white"/>
<path d="M30.3264 237.571C29.0165 237.735 29.0165 238.062 29.0165 239.044V241.009C29.0165 241.746 29.0165 242.401 29.1803 242.892C27.7886 243.22 25.9057 243.793 24.1046 243.793C19.3565 243.793 16 240.927 16 236.752C16 232.004 20.0114 229.466 24.3502 229.466C26.2331 229.466 27.8704 229.875 28.6072 230.039C28.6891 230.694 28.7709 231.922 29.0165 233.232L28.6891 233.314C27.9523 230.53 26.2331 229.957 24.0228 229.957C19.8477 229.957 17.6373 232.413 17.6373 236.425C17.6373 239.454 19.3565 243.219 24.1865 243.219C25.3326 243.219 26.315 243.056 26.9699 242.892C27.6248 242.728 27.8704 242.401 27.8704 241.418V239.454C27.8704 238.144 27.7886 237.735 25.2508 237.571V237.243H30.3264V237.571Z" fill="#D4B581" stroke="#D4B581" stroke-width="0.216" stroke-miterlimit="2.6131"/>
<path d="M46.2901 243.056C47.518 242.892 48.0092 242.728 48.0092 242.237C48.0092 241.664 47.3543 239.945 46.5357 237.98H41.5419C41.2963 238.389 40.2321 241.337 40.2321 241.992C40.2321 242.728 40.8051 242.892 42.0331 243.056V243.383H37.1212V243.056C38.6766 242.728 38.9222 242.565 39.7409 240.6L44.489 229.548L44.7346 229.466L46.2082 233.478C47.1906 236.179 48.173 238.881 48.9916 241.009C49.6465 242.646 49.8103 242.892 51.3657 243.138V243.465H46.3719V243.056H46.2901ZM44.1616 231.431C43.2611 233.396 42.4424 235.442 41.7056 237.243H46.2901L44.1616 231.431Z" fill="#D4B581" stroke="#D4B581" stroke-width="0.216" stroke-miterlimit="2.6131"/>
<path d="M58.1605 243.056C60.1252 242.974 60.289 242.565 60.289 240.845V232.086C60.289 230.367 60.1252 230.121 58.3242 229.957V229.63H63.4817C65.6102 229.63 67.9843 230.285 67.9843 233.068C67.9843 234.951 67.0019 236.015 65.3646 236.752C65.6921 237.407 66.5926 238.799 67.3294 239.699C68.3936 241.009 69.8672 242.892 71.0133 243.138L70.9314 243.383C68.9667 243.383 67.9024 243.301 64.6278 237.898C64.0548 237.08 63.3998 237.08 61.5988 237.08V240.682C61.5988 242.401 61.7625 242.81 63.6454 242.892V243.219H58.3242V243.056H58.1605ZM62.8268 236.834C64.0548 236.834 64.8734 236.67 65.4465 236.179C66.1833 235.606 66.5926 234.706 66.5926 233.478C66.5926 231.185 65.119 230.121 62.8268 230.121C62.2537 230.121 61.8444 230.121 61.6807 230.203C61.5988 230.203 61.517 230.285 61.517 230.694V236.834H62.8268Z" fill="#D4B581" stroke="#D4B581" stroke-width="0.216" stroke-miterlimit="2.6131"/>
<path d="M77.6444 243.056C79.6091 242.974 79.7729 242.565 79.7729 240.845V232.168C79.7729 230.449 79.6091 230.121 77.8081 230.039V229.712H84.1117C86.7314 229.712 88.8599 230.121 90.1697 231.431C91.3158 232.495 91.9707 234.051 91.9707 235.934C91.9707 241.664 86.977 243.301 82.6381 243.301H77.6444V243.056ZM80.919 240.845C80.919 242.483 81.2464 242.892 83.4568 242.892C88.778 242.892 90.579 239.454 90.579 236.507C90.579 234.051 89.5967 231.758 87.55 230.858C86.5677 230.449 85.176 230.203 83.0475 230.203C81.9013 230.203 81.3283 230.203 81.1646 230.285C81.0827 230.285 81.0008 230.285 81.0008 230.694V240.845H80.919Z" fill="#D4B581" stroke="#D4B581" stroke-width="0.216" stroke-miterlimit="2.6131"/>
<path d="M99.5023 243.056C101.549 242.974 101.713 242.565 101.713 240.927V232.413C101.713 230.53 101.549 230.203 99.7479 230.121V229.794H109.162C109.162 230.53 109.244 231.84 109.326 233.15L108.917 233.232C108.426 231.022 108.016 230.367 105.397 230.367H103.432C102.859 230.367 102.859 230.449 102.859 230.94V236.015H105.397C107.116 236.015 107.525 235.77 107.853 234.378H108.262V238.389H107.853C107.525 236.752 107.034 236.588 105.397 236.588H102.859V240.845C102.859 242.892 103.759 242.892 105.56 242.892C106.87 242.892 108.18 242.892 108.917 242.073C109.244 241.664 109.817 240.927 110.145 239.945H110.554C110.39 240.764 109.981 242.728 109.735 243.465H99.5842V243.056H99.5023Z" fill="#D4B581" stroke="#D4B581" stroke-width="0.216" stroke-miterlimit="2.6131"/>
<path d="M117.513 243.056C118.822 242.974 119.396 242.565 119.559 241.91C119.723 241.255 119.805 240.027 119.805 237.898V233.15C119.805 231.185 119.723 231.349 119.314 230.858C118.904 230.449 118.495 230.203 117.349 230.039V229.712H120.05L130.12 241.173H130.202V234.951C130.202 230.694 130.202 230.121 127.664 229.957V229.63H133.067V229.957C131.839 230.039 131.266 230.449 131.102 231.103C130.938 231.758 130.857 232.904 130.857 234.951V243.547H130.611L120.542 232.086H120.46V237.898C120.46 240.109 120.542 241.255 120.624 241.91C120.787 242.565 121.442 242.974 122.916 243.056V243.383H117.513V243.056Z" fill="#D4B581" stroke="#D4B581" stroke-width="0.216" stroke-miterlimit="2.6131"/>
<path d="M147.393 232.904C146.984 231.677 146.493 229.957 144.364 229.957C142.809 229.957 141.99 230.94 141.99 232.413C141.99 234.214 143.3 234.951 144.774 235.688C145.756 236.179 148.376 237.08 148.376 239.863C148.376 242.155 146.657 243.793 143.873 243.793C142.973 243.711 142.236 243.629 141.663 243.465C141.172 243.301 140.844 243.138 140.762 243.056C140.599 242.483 140.353 240.927 140.271 239.617H140.599C140.926 240.764 141.908 243.219 144.446 243.219C146.084 243.219 147.148 242.319 147.148 240.354C147.148 238.144 145.347 237.407 144.201 236.752C144.037 236.67 140.844 235.606 140.844 232.986C140.844 231.185 142.318 229.466 144.856 229.466C145.592 229.466 146.165 229.548 147.393 229.957C147.475 230.694 147.557 231.513 147.721 232.986H147.393V232.904Z" fill="#D4B581" stroke="#D4B581" stroke-width="0.216" stroke-miterlimit="2.6131"/>
</svg>
